<?xml version="1.0" encoding="UTF-8"?>
<!DOCTYPE svg PUBLIC "-//W3C//DTD SVG 1.1//EN" "http://www.w3.org/Graphics/SVG/1.1/DTD/svg11.dtd">
<!-- Creator: CorelDRAW 2019 (64-Bit) -->
<svg xmlns="http://www.w3.org/2000/svg" xml:space="preserve" width="44.0266mm" height="44.0266mm" version="1.1" style="shape-rendering:geometricPrecision; text-rendering:geometricPrecision; image-rendering:optimizeQuality; fill-rule:evenodd; clip-rule:evenodd"
viewBox="0 0 4402.66 4402.66"
 xmlns:xlink="http://www.w3.org/1999/xlink"
 xmlns:xodm="http://www.corel.com/coreldraw/odm/2003">
 <defs>
  <style type="text/css">
   <![CDATA[
    .fil1 {fill:#3A6BA5}
    .fil0 {fill:#3A6BA5;fill-rule:nonzero}
   ]]>
  </style>
 </defs>
 <g id="Слой_x0020_1">
  <metadata id="CorelCorpID_0Corel-Layer"/>
  <g id="_1807320105696">
   <g id="_1829791904000">
    <path class="fil0" d="M1750.05 1471.11c-3.17,3.19 -6.33,6.4 -9.44,9.62 -0.34,0.67 -0.8,1.3 -1.38,1.85 -0.43,0.41 -0.9,0.75 -1.39,1.03 -6.1,6.36 -12.08,12.79 -17.94,19.28 -0.32,0.72 -0.77,1.39 -1.35,1.97 -0.43,0.44 -0.9,0.8 -1.4,1.1 -5.83,6.52 -11.55,13.12 -17.15,19.78 -0.3,0.76 -0.74,1.47 -1.32,2.11 -0.44,0.47 -0.92,0.87 -1.45,1.19 -5.55,6.67 -10.99,13.4 -16.31,20.19 -0.27,0.82 -0.7,1.59 -1.29,2.29 -0.45,0.52 -0.96,0.96 -1.52,1.31 -5.27,6.81 -10.42,13.67 -15.47,20.59 -0.23,0.85 -0.65,1.67 -1.23,2.4 -0.44,0.56 -0.97,1.03 -1.53,1.42 -5,6.94 -9.88,13.93 -14.65,20.98 -0.2,0.9 -0.59,1.76 -1.17,2.54 -0.44,0.61 -0.97,1.12 -1.56,1.53 -4.72,7.07 -9.34,14.2 -13.83,21.38 -0.16,0.9 -0.52,1.8 -1.08,2.61 -0.43,0.64 -0.96,1.18 -1.54,1.61 -4.46,7.22 -8.8,14.48 -13.03,21.79 -0.13,0.93 -0.46,1.84 -0.99,2.69 -0.42,0.66 -0.94,1.23 -1.52,1.69 -4.19,7.35 -8.27,14.75 -12.22,22.18 -0.1,0.95 -0.4,1.89 -0.91,2.76 -0.4,0.68 -0.9,1.26 -1.47,1.74 -3.91,7.48 -7.72,15 -11.4,22.56 -0.06,0.96 -0.32,1.92 -0.81,2.82 -0.38,0.71 -0.87,1.32 -1.44,1.83 -3.65,7.61 -7.19,15.26 -10.6,22.96 -0.04,0.94 -0.27,1.9 -0.72,2.8 -0.34,0.69 -0.79,1.3 -1.32,1.82 -3.39,7.75 -6.66,15.55 -9.82,23.38 0,0.94 -0.2,1.89 -0.61,2.79 -0.32,0.71 -0.74,1.34 -1.24,1.87 -3.13,7.89 -6.14,15.82 -9.02,23.78 0.03,0.92 -0.14,1.86 -0.51,2.77 -0.29,0.7 -0.68,1.33 -1.15,1.87 -2.86,8.04 -5.6,16.11 -8.21,24.21 0.04,0.89 -0.1,1.8 -0.43,2.69 -0.25,0.67 -0.6,1.28 -1.02,1.82 -2.59,8.17 -5.05,16.38 -7.39,24.61 0.06,0.87 -0.04,1.76 -0.33,2.64 -0.22,0.68 -0.54,1.29 -0.93,1.84 -2.31,8.29 -4.49,16.6 -6.55,24.94 0.08,0.85 0.01,1.73 -0.24,2.6 -0.19,0.66 -0.47,1.26 -0.83,1.81 -2.03,8.41 -3.94,16.85 -5.71,25.31 0.1,0.83 0.05,1.68 -0.17,2.54 -0.16,0.63 -0.4,1.22 -0.72,1.76 -1.74,8.52 -3.36,17.06 -4.84,25.62 0.11,0.8 0.09,1.62 -0.09,2.46 -0.13,0.62 -0.35,1.21 -0.64,1.75 -1.45,8.61 -2.77,17.25 -3.96,25.89 0.13,0.77 0.14,1.58 -0.01,2.39 -0.11,0.61 -0.3,1.17 -0.55,1.7 -1.15,8.67 -2.17,17.36 -3.06,26.05 0.17,0.78 0.2,1.59 0.08,2.42 -0.09,0.61 -0.26,1.2 -0.5,1.74 -0.85,8.72 -1.57,17.45 -2.15,26.19 0.18,0.74 0.23,1.53 0.15,2.34 -0.07,0.58 -0.2,1.14 -0.4,1.66 -0.55,8.79 -0.98,17.59 -1.26,26.38 0.2,0.73 0.28,1.5 0.23,2.3 -0.05,0.59 -0.16,1.16 -0.35,1.69 -0.22,7.94 -0.33,15.88 -0.33,23.82l0 2.6c0.22,0.72 0.33,1.48 0.3,2.28 -0.02,0.58 -0.12,1.15 -0.28,1.68 0.07,8.79 0.27,17.57 0.6,26.35 0.26,0.73 0.4,1.51 0.4,2.33 0,0.61 -0.09,1.2 -0.24,1.76 0.37,8.75 0.88,17.5 1.52,26.24 0.29,0.73 0.46,1.52 0.49,2.35 0.02,0.61 -0.04,1.21 -0.18,1.78 0.67,8.72 1.48,17.42 2.42,26.12 0.33,0.72 0.53,1.5 0.58,2.34 0.04,0.63 0,1.24 -0.12,1.82 0.98,8.66 2.09,17.3 3.32,25.93 0.36,0.72 0.61,1.52 0.7,2.37 0.06,0.65 0.04,1.29 -0.07,1.9 1.27,8.59 2.67,17.16 4.21,25.71 0.39,0.72 0.67,1.52 0.79,2.38 0.09,0.65 0.08,1.3 -0.01,1.91 1.56,8.49 3.25,16.96 5.08,25.4 0.45,0.73 0.78,1.56 0.94,2.46 0.12,0.7 0.13,1.39 0.04,2.06 1.85,8.36 3.82,16.69 5.92,25.01 0.51,0.73 0.88,1.57 1.07,2.49 0.15,0.72 0.18,1.44 0.11,2.13 2.13,8.25 4.38,16.47 6.76,24.66 0.55,0.72 0.96,1.56 1.19,2.5 0.18,0.73 0.24,1.47 0.18,2.18 2.42,8.14 4.95,16.26 7.6,24.35 0.58,0.7 1.03,1.53 1.29,2.46 0.21,0.73 0.29,1.47 0.26,2.2 2.69,8.04 5.5,16.04 8.43,24.01 0.61,0.69 1.1,1.51 1.4,2.45 0.24,0.73 0.34,1.48 0.33,2.22 2.96,7.91 6.05,15.8 9.25,23.64 0.65,0.67 1.17,1.48 1.52,2.42 0.26,0.74 0.39,1.5 0.4,2.24 3.23,7.78 6.58,15.53 10.04,23.23 0.69,0.65 1.26,1.46 1.64,2.4 0.3,0.75 0.46,1.52 0.49,2.28 4.16,9.1 8.49,18.13 12.97,27.11 0.72,0.62 1.31,1.4 1.73,2.32 0.33,0.74 0.53,1.51 0.59,2.27 4.61,9.09 9.39,18.12 14.35,27.07 0.72,0.59 1.33,1.33 1.77,2.21 0.36,0.71 0.58,1.45 0.68,2.19 4.84,8.65 9.85,17.22 15.02,25.73l0.03 0.02 0.04 0.03 0.03 0.02 0 0.01 0.03 0.02 0.04 0.03 0.03 0.03 0.03 0.02 0.01 0 0.03 0.03 0.03 0.03 0.04 0.03 0.01 0.01 0.02 0.02 0.03 0.03 0.04 0.03 0.06 0.06 0.03 0.03 0.03 0.03 0.03 0.03 0.01 0 0.03 0.03 0.03 0.03 0.03 0.03 0.03 0.03 0 0 0.03 0.03 0.03 0.03 0.03 0.04 0.03 0.02 0 0.01 0.03 0.03 0.03 0.03 0.06 0.07 0.03 0.03 0.03 0.03 0.03 0.04 0.01 0.01 0.02 0.02 0.03 0.03 0.02 0.04 0.03 0.03 0.01 0.01 0.02 0.03 0.03 0.03 0.03 0.04 0.02 0.03 0.01 0 0.02 0.04 0.03 0.03 0.02 0.04 0.03 0.03 0 0.01 0.03 0.03 0.03 0.04 0.02 0.04 0.02 0.02 0 0.01 0.03 0.04 0.03 0.04 0.02 0.04 0.02 0.02 0 0.01 0.03 0.04 0.03 0.04 0.02 0.04 0.01 0.01 0.01 0.03 0.03 0.04 0.02 0.03 0.03 0.05 0 0 0.02 0.04 0.02 0.03 0.02 0.04 0.03 0.04 0.01 0.04 0.02 0.03 0.02 0.03 0.01 0.03 0.02 0.03 0 0 0.02 0.04 0.01 0.03 0.02 0.03 0.01 0.03 0.02 0.03 0 0 0.02 0.04 0.01 0.03 0.02 0.03 0.01 0.03 0.01 0.02 0.01 0.01 0.01 0.04 0.02 0.03 0.01 0.03 0.01 0.03 0.01 0.02 0.01 0.02 0.01 0.03 0.02 0.03 0.01 0.03 0.01 0.04 0.01 0.01 0 0.02 0.02 0.03 0.01 0.04 0.01 0.03 0.01 0.03 0.01 0.01 0.01 0.02 0.01 0.04 0.01 0.03 0.01 0.03 0.01 0.04 0.01 0 0 0.03 0.01 0.03 0.02 0.03 0.01 0.04 0 0.03 0.01 0 0.01 0.03 0.01 0.03 0 0.04 0.02 0.03 0 0.04 0.01 0 0 0.03 0.01 0.03 0.01 0.03 0.01 0.04 0.01 0.03 0 0 0.01 0.04 0.01 0.03 0.01 0.03 0 0.04 0.01 0.02 0 0.01 0.01 0.03 0.01 0.04 0 0.03 0.01 0.03 0 0.03 0.01 0.01 0.01 0.03 0 0.04 0.01 0.03 0 0.03 0.01 0.02 0 0.02c5.23,8.51 10.63,16.95 16.19,25.31 0.74,0.53 1.39,1.21 1.89,2.05 0.4,0.65 0.67,1.34 0.83,2.05 6.18,9.18 12.55,18.27 19.11,27.26 0.75,0.49 1.42,1.13 1.95,1.92 0.4,0.62 0.7,1.27 0.89,1.94 5.27,7.13 10.66,14.2 16.17,21.2 0.72,0.45 1.35,1.04 1.88,1.77 0.4,0.56 0.71,1.16 0.92,1.78 20.34,25.56 42.34,50.24 65.99,73.89 7.27,7.27 14.63,14.38 22.08,21.33 0.54,0.25 1.06,0.58 1.53,0.98 0.64,0.55 1.16,1.18 1.55,1.87 6.42,5.93 12.9,11.75 19.45,17.45 0.57,0.23 1.12,0.55 1.63,0.95 0.68,0.54 1.23,1.18 1.64,1.88 6.6,5.68 13.27,11.25 19.99,16.7 0.59,0.21 1.15,0.51 1.68,0.9 0.71,0.52 1.28,1.14 1.72,1.84 6.75,5.41 13.57,10.71 20.44,15.9 0.64,0.19 1.26,0.49 1.84,0.88 0.78,0.52 1.41,1.17 1.89,1.91 6.87,5.13 13.81,10.14 20.8,15.04 0.68,0.17 1.34,0.45 1.96,0.85 0.8,0.5 1.46,1.15 1.96,1.88 7.02,4.86 14.09,9.6 21.22,14.23 0.7,0.14 1.4,0.4 2.06,0.79 0.84,0.49 1.55,1.14 2.08,1.88 7.15,4.59 14.35,9.06 21.61,13.41 0.72,0.12 1.43,0.36 2.11,0.72 0.88,0.47 1.61,1.1 2.18,1.84 7.28,4.31 14.61,8.51 21.98,12.59 0.75,0.09 1.51,0.31 2.23,0.66 0.91,0.45 1.68,1.08 2.28,1.82 7.39,4.03 14.83,7.95 22.31,11.75 0.77,0.06 1.53,0.25 2.27,0.58 0.95,0.42 1.74,1.03 2.37,1.76 7.55,3.78 15.13,7.44 22.76,10.98 0.74,0.04 1.49,0.19 2.23,0.49 0.93,0.38 1.73,0.95 2.38,1.63 7.69,3.52 15.42,6.91 23.18,10.19 0.75,0.01 1.51,0.14 2.26,0.42 0.94,0.34 1.76,0.88 2.43,1.54 7.81,3.24 15.67,6.38 23.56,9.38 0.73,-0.01 1.48,0.1 2.22,0.34 0.93,0.31 1.75,0.8 2.44,1.42 7.96,2.98 15.95,5.84 23.97,8.58 0.72,-0.03 1.46,0.05 2.19,0.26 0.93,0.27 1.75,0.72 2.45,1.31 8.1,2.71 16.23,5.3 24.39,7.76 0.68,-0.04 1.38,0.02 2.08,0.2 0.9,0.22 1.71,0.63 2.42,1.15 8.24,2.44 16.51,4.77 24.81,6.96 0.65,-0.06 1.32,-0.02 2,0.12 0.88,0.19 1.69,0.55 2.4,1.02 8.38,2.17 16.79,4.22 25.22,6.13 0.62,-0.06 1.25,-0.04 1.9,0.07 0.85,0.15 1.64,0.46 2.34,0.88 8.51,1.89 17.04,3.65 25.58,5.28 0.6,-0.08 1.21,-0.08 1.83,0.01 0.84,0.12 1.62,0.39 2.31,0.77 8.58,1.59 17.17,3.05 25.78,4.38 0.6,-0.1 1.22,-0.12 1.85,-0.06 0.86,0.1 1.66,0.34 2.39,0.71 8.65,1.3 17.31,2.46 25.98,3.49 0.56,-0.11 1.15,-0.15 1.75,-0.1 0.81,0.06 1.58,0.26 2.28,0.57 8.73,0.99 17.46,1.86 26.21,2.59 0.56,-0.12 1.14,-0.18 1.73,-0.16 0.81,0.03 1.57,0.2 2.28,0.48 8.76,0.69 17.51,1.26 26.28,1.68 0.56,-0.14 1.15,-0.23 1.76,-0.23 0.81,0 1.59,0.15 2.32,0.41 8.79,0.38 17.58,0.65 26.37,0.77 0.53,-0.16 1.1,-0.25 1.67,-0.27 0.8,-0.03 1.58,0.08 2.3,0.31 2.6,0.02 5.2,0.04 7.79,0.04 6.21,0 12.41,-0.06 18.62,-0.19 0.53,-0.18 1.08,-0.29 1.66,-0.34 0.82,-0.06 1.61,0.03 2.35,0.24 8.76,-0.23 17.52,-0.59 26.28,-1.08 0.55,-0.21 1.13,-0.35 1.74,-0.42 0.84,-0.09 1.65,-0.02 2.42,0.18 8.74,-0.54 17.48,-1.21 26.21,-2.01 0.52,-0.21 1.07,-0.37 1.66,-0.45 0.81,-0.11 1.61,-0.08 2.36,0.08 8.73,-0.84 17.45,-1.81 26.16,-2.92 0.52,-0.24 1.08,-0.42 1.68,-0.53 0.82,-0.14 1.63,-0.13 2.4,0.01 8.66,-1.14 17.3,-2.41 25.92,-3.81 0.54,-0.28 1.12,-0.5 1.74,-0.63 0.84,-0.17 1.68,-0.19 2.48,-0.06 8.56,-1.44 17.1,-3 25.63,-4.69 0.54,-0.32 1.13,-0.56 1.77,-0.72 0.86,-0.22 1.72,-0.26 2.55,-0.15 8.45,-1.72 16.89,-3.57 25.29,-5.55 0.55,-0.35 1.15,-0.63 1.81,-0.83 0.89,-0.26 1.79,-0.32 2.66,-0.23 8.34,-2.01 16.65,-4.13 24.94,-6.39 0.55,-0.39 1.16,-0.7 1.83,-0.93 0.9,-0.29 1.82,-0.39 2.71,-0.32 8.22,-2.28 16.41,-4.69 24.58,-7.23 0.55,-0.43 1.17,-0.78 1.85,-1.03 0.92,-0.34 1.86,-0.47 2.77,-0.41 8.11,-2.57 16.19,-5.25 24.24,-8.06 0.53,-0.46 1.15,-0.84 1.84,-1.12 0.9,-0.37 1.83,-0.53 2.75,-0.5 7.98,-2.84 15.93,-5.8 23.84,-8.88 0.54,-0.5 1.16,-0.93 1.87,-1.24 0.92,-0.42 1.88,-0.61 2.82,-0.6 7.85,-3.11 15.66,-6.33 23.43,-9.67 0.52,-0.52 1.13,-0.97 1.82,-1.31 0.91,-0.45 1.87,-0.68 2.82,-0.71 7.74,-3.38 15.43,-6.88 23.09,-10.5 0.5,-0.53 1.09,-1 1.77,-1.36 0.89,-0.47 1.82,-0.73 2.76,-0.79 7.61,-3.66 15.17,-7.42 22.69,-11.31 0.49,-0.56 1.06,-1.05 1.74,-1.44 0.87,-0.51 1.81,-0.8 2.75,-0.9 7.48,-3.91 14.92,-7.95 22.3,-12.1 0.46,-0.56 1.01,-1.06 1.65,-1.47 0.84,-0.53 1.75,-0.85 2.67,-0.99 7.36,-4.19 14.68,-8.5 21.94,-12.93 0.44,-0.57 0.97,-1.08 1.59,-1.5 0.81,-0.55 1.69,-0.9 2.6,-1.07 7.23,-4.47 14.43,-9.06 21.56,-13.76 0.4,-0.55 0.9,-1.05 1.47,-1.47 0.77,-0.56 1.61,-0.94 2.48,-1.14 7.1,-4.74 14.15,-9.6 21.14,-14.57 0.38,-0.56 0.85,-1.06 1.41,-1.51 0.74,-0.58 1.56,-0.99 2.42,-1.22 6.95,-5 13.85,-10.12 20.68,-15.35 0.36,-0.55 0.79,-1.05 1.32,-1.5 0.69,-0.58 1.47,-1.01 2.28,-1.28 6.83,-5.28 13.61,-10.68 20.32,-16.2 0.32,-0.52 0.71,-0.99 1.18,-1.42 0.62,-0.57 1.33,-1 2.07,-1.29 6.72,-5.59 13.38,-11.28 19.97,-17.1 0.29,-0.48 0.65,-0.93 1.06,-1.34 0.58,-0.56 1.23,-1 1.93,-1.32 6.55,-5.84 13.05,-11.79 19.46,-17.87 0.28,-0.48 0.62,-0.94 1.02,-1.36 0.54,-0.56 1.15,-1.01 1.8,-1.34 4.51,-4.31 8.99,-8.67 13.43,-13.09l9.68 9.67c-3.29,3.27 -6.59,6.51 -9.91,9.71l69.57 66.71c2.71,2.6 2.8,6.92 0.19,9.63 -2.61,2.71 -6.92,2.8 -9.64,0.19l-70.01 -67.12c-4.19,3.94 -8.43,7.81 -12.68,11.65l67.17 69.08c2.63,2.69 2.58,7.01 -0.11,9.64 -2.69,2.63 -7.01,2.58 -9.64,-0.11l-67.62 -69.55c-4.33,3.79 -8.7,7.52 -13.08,11.21l64.69 71.38c2.54,2.78 2.33,7.1 -0.45,9.63 -2.79,2.54 -7.1,2.34 -9.64,-0.45l-65.11 -71.84c-4.45,3.63 -8.94,7.2 -13.44,10.72l62.12 73.57c2.44,2.88 2.09,7.2 -0.79,9.64 -2.88,2.44 -7.2,2.09 -9.64,-0.79l-62.53 -74.06c-4.58,3.47 -9.18,6.88 -13.81,10.25l59.49 75.68c2.34,2.96 1.83,7.25 -1.13,9.59 -2.96,2.34 -7.26,1.83 -9.6,-1.13l-59.88 -76.18c-4.7,3.31 -9.42,6.57 -14.17,9.77l56.78 77.7c2.22,3.03 1.56,7.3 -1.47,9.52 -3.04,2.23 -7.3,1.56 -9.53,-1.47l-57.15 -78.21c-4.81,3.15 -9.65,6.23 -14.51,9.27l54.01 79.63c2.12,3.12 1.31,7.36 -1.81,9.48 -3.12,2.12 -7.37,1.31 -9.49,-1.81l-54.36 -80.14c-4.92,2.97 -9.86,5.88 -14.83,8.74l51.18 81.44c2.01,3.18 1.06,7.4 -2.13,9.41 -3.18,2.02 -7.39,1.07 -9.41,-2.11l-51.51 -82c-5.02,2.8 -10.07,5.53 -15.13,8.22l48.28 83.17c1.89,3.26 0.79,7.44 -2.46,9.34 -3.26,1.9 -7.44,0.79 -9.34,-2.46l-48.6 -83.73c-5.12,2.61 -10.26,5.17 -15.41,7.68l45.33 84.82c1.78,3.32 0.52,7.45 -2.8,9.22 -3.32,1.78 -7.44,0.52 -9.22,-2.8l-45.63 -85.37c-5.2,2.44 -10.43,4.82 -15.67,7.14l42.32 86.34c1.67,3.38 0.29,7.48 -3.09,9.14 -3.39,1.68 -7.48,0.29 -9.15,-3.09l-42.62 -86.94c-5.28,2.24 -10.58,4.43 -15.9,6.57l39.29 87.79c1.54,3.44 0,7.48 -3.44,9.03 -3.45,1.55 -7.49,0 -9.04,-3.44l-39.55 -88.38c-5.36,2.06 -10.73,4.06 -16.12,6.01l36.18 89.13c1.42,3.48 -0.26,7.46 -3.74,8.88 -3.49,1.42 -7.46,-0.26 -8.88,-3.74l-36.43 -89.73c-5.43,1.87 -10.88,3.69 -16.34,5.45l33.04 90.34c1.31,3.54 -0.5,7.46 -4.04,8.77 -3.54,1.3 -7.47,-0.51 -8.77,-4.04l-33.28 -90.98c-5.48,1.67 -10.99,3.29 -16.5,4.86l29.86 91.47c1.18,3.57 -0.77,7.44 -4.35,8.62 -3.58,1.17 -7.44,-0.77 -8.62,-4.35l-30.07 -92.11c-5.54,1.48 -11.1,2.91 -16.66,4.28l26.64 92.48c1.06,3.62 -1.02,7.41 -4.65,8.46 -3.62,1.06 -7.41,-1.02 -8.47,-4.64l-26.83 -93.13c-5.59,1.28 -11.19,2.51 -16.8,3.69l23.39 93.39c0.92,3.65 -1.3,7.36 -4.95,8.28 -3.65,0.92 -7.36,-1.3 -8.28,-4.95l-23.55 -94.02c-5.64,1.09 -11.29,2.12 -16.94,3.1l20.11 94.19c0.78,3.68 -1.57,7.3 -5.25,8.08 -3.68,0.79 -7.31,-1.56 -8.09,-5.25l-20.24 -94.79c-5.67,0.89 -11.36,1.73 -17.05,2.51l16.81 94.84c0.66,3.71 -1.82,7.25 -5.52,7.9 -3.71,0.66 -7.24,-1.81 -7.9,-5.52l-16.91 -95.47c-5.71,0.69 -11.41,1.33 -17.13,1.92l13.47 95.38c0.53,3.72 -2.06,7.17 -5.78,7.7 -3.73,0.54 -7.18,-2.05 -7.71,-5.78l-13.56 -96.02c-5.71,0.49 -11.43,0.93 -17.15,1.31l10.11 95.81c0.4,3.76 -2.33,7.13 -6.08,7.52 -3.76,0.4 -7.12,-2.32 -7.52,-6.08l-10.18 -96.44c-5.73,0.3 -11.46,0.53 -17.19,0.72l6.75 96.09c0.28,3.76 -2.55,7.03 -6.31,7.3 -3.75,0.27 -7.02,-2.56 -7.29,-6.31l-6.8 -96.76c-4.81,0.08 -9.63,0.12 -14.45,0.12l-2.76 -0.02 3.38 96.3c0.13,3.77 -2.81,6.93 -6.58,7.07 -3.76,0.13 -6.93,-2.81 -7.06,-6.58l-3.4 -96.94c-5.74,-0.1 -11.46,-0.27 -17.19,-0.49l0 96.37c0,3.78 -3.06,6.84 -6.84,6.84 -3.78,0 -6.84,-3.06 -6.84,-6.84l0 -96.99c-5.73,-0.31 -11.45,-0.67 -17.16,-1.09l-3.37 96.31c-0.14,3.76 -3.31,6.71 -7.07,6.57 -3.77,-0.13 -6.71,-3.3 -6.58,-7.06l3.4 -96.92c-5.71,-0.51 -11.42,-1.07 -17.13,-1.69l-6.74 96.13c-0.28,3.75 -3.54,6.58 -7.3,6.31 -3.76,-0.27 -6.59,-3.54 -6.31,-7.3l6.79 -96.72c-5.69,-0.7 -11.37,-1.46 -17.05,-2.28l-10.11 95.81c-0.4,3.75 -3.76,6.48 -7.52,6.08 -3.76,-0.4 -6.48,-3.76 -6.08,-7.52l10.17 -96.43c-5.66,-0.9 -11.31,-1.86 -16.96,-2.88l-13.46 95.39c-0.53,3.73 -3.99,6.32 -7.71,5.78 -3.73,-0.53 -6.32,-3.98 -5.78,-7.7l13.54 -95.98c-5.63,-1.11 -11.25,-2.27 -16.87,-3.48l-16.8 94.83c-0.66,3.7 -4.2,6.18 -7.9,5.52 -3.7,-0.66 -6.17,-4.2 -5.52,-7.9l16.9 -95.42c-5.59,-1.3 -11.17,-2.66 -16.74,-4.07l-20.1 94.15c-0.78,3.68 -4.41,6.03 -8.09,5.25 -3.68,-0.79 -6.03,-4.41 -5.25,-8.09l20.23 -94.75c-5.54,-1.49 -11.07,-3.05 -16.58,-4.65l-23.38 93.37c-0.92,3.65 -4.63,5.87 -8.28,4.95 -3.66,-0.92 -5.87,-4.63 -4.95,-8.28l23.53 -93.95c-5.48,-1.68 -10.95,-3.43 -16.4,-5.22l-26.64 92.48c-1.06,3.62 -4.85,5.7 -8.47,4.65 -3.62,-1.06 -5.7,-4.85 -4.65,-8.47l26.8 -93.03c-5.41,-1.88 -10.82,-3.81 -16.2,-5.8l-29.86 91.47c-1.18,3.58 -5.04,5.52 -8.62,4.35 -3.58,-1.18 -5.52,-5.04 -4.34,-8.62l30.04 -92.02c-5.35,-2.07 -10.68,-4.19 -16,-6.36l-33.04 90.34c-1.3,3.54 -5.23,5.35 -8.77,4.05 -3.54,-1.31 -5.35,-5.23 -4.04,-8.77l33.24 -90.9c-5.27,-2.25 -10.53,-4.56 -15.76,-6.92l-36.18 89.11c-1.42,3.48 -5.4,5.16 -8.89,3.74 -3.48,-1.42 -5.16,-5.4 -3.74,-8.88l36.41 -89.67c-5.19,-2.44 -10.36,-4.94 -15.51,-7.48l-39.28 87.78c-1.54,3.44 -5.59,4.99 -9.03,3.44 -3.44,-1.54 -4.99,-5.59 -3.44,-9.03l39.53 -88.34c-5.09,-2.62 -10.17,-5.29 -15.22,-8.01l-42.34 86.36c-1.67,3.38 -5.76,4.77 -9.15,3.1 -3.38,-1.67 -4.77,-5.77 -3.09,-9.15l42.59 -86.89c-5,-2.8 -9.98,-5.65 -14.94,-8.56l-45.34 84.82c-1.77,3.32 -5.9,4.58 -9.22,2.8 -3.32,-1.77 -4.58,-5.9 -2.8,-9.22l45.64 -85.38c-4.91,-2.97 -9.78,-6 -14.64,-9.08l-48.3 83.21c-1.9,3.26 -6.08,4.36 -9.34,2.46 -3.25,-1.9 -4.35,-6.08 -2.45,-9.33l48.6 -83.74c-4.79,-3.14 -9.56,-6.34 -14.3,-9.59l-51.2 81.5c-2.02,3.18 -6.24,4.13 -9.42,2.12 -3.18,-2.02 -4.13,-6.23 -2.11,-9.42l51.52 -82c-4.68,-3.3 -9.33,-6.67 -13.95,-10.08l-54.04 79.67c-2.12,3.12 -6.37,3.93 -9.49,1.81 -3.12,-2.12 -3.93,-6.37 -1.81,-9.49l54.4 -80.18c-4.56,-3.47 -9.09,-7 -13.6,-10.57l-56.82 77.75c-2.22,3.03 -6.49,3.7 -9.52,1.47 -3.04,-2.22 -3.7,-6.48 -1.48,-9.52l57.19 -78.26c-4.43,-3.63 -8.83,-7.31 -13.21,-11.03l-59.53 75.74c-2.34,2.96 -6.63,3.47 -9.6,1.13 -2.96,-2.33 -3.47,-6.63 -1.13,-9.59l59.91 -76.23c-4.29,-3.77 -8.56,-7.6 -12.8,-11.47l-62.17 73.63c-2.44,2.88 -6.76,3.24 -9.64,0.79 -2.88,-2.44 -3.23,-6.75 -0.79,-9.63l62.56 -74.1c-4.82,-4.55 -9.62,-9.16 -14.37,-13.84l-68.59 68.6c-2.68,2.67 -7.01,2.67 -9.68,0 -2.67,-2.68 -2.67,-7.01 0,-9.68l68.59 -68.6c-5.14,-5.22 -10.19,-10.48 -15.17,-15.8l-71.31 65.77c-2.76,2.55 -7.08,2.38 -9.63,-0.38 -2.56,-2.77 -2.39,-7.08 0.37,-9.64l71.32 -65.77c-5.41,-5.95 -10.72,-11.95 -15.93,-18.01l-74.5 63.34c-2.87,2.46 -7.19,2.12 -9.64,-0.75 -2.45,-2.87 -2.11,-7.18 0.76,-9.64l74.54 -63.37c-3.51,-4.2 -6.95,-8.43 -10.37,-12.68l-78.63 56.67c-3.06,2.21 -7.32,1.51 -9.52,-1.55 -2.21,-3.05 -1.51,-7.32 1.54,-9.52l78.13 -56.3c-3.72,-4.78 -7.39,-9.58 -10.99,-14.42l-80.58 53.77c-3.14,2.09 -7.39,1.24 -9.48,-1.89 -2.1,-3.14 -1.26,-7.39 1.88,-9.49l80.08 -53.43c-4.91,-6.79 -9.71,-13.64 -14.4,-20.55l-82.83 50.15c-3.22,1.95 -7.42,0.91 -9.37,-2.31 -1.95,-3.22 -0.92,-7.42 2.3,-9.37l82.32 -49.83c-4.01,-6.11 -7.93,-12.26 -11.78,-18.44l-84.77 46.75c-3.3,1.82 -7.44,0.61 -9.26,-2.68 -1.82,-3.3 -0.61,-7.45 2.68,-9.26l84.24 -46.46c-3.73,-6.21 -7.38,-12.46 -10.94,-18.75l-86.54 43.29c-3.36,1.7 -7.46,0.34 -9.15,-3.02 -1.69,-3.36 -0.33,-7.45 3.03,-9.14l86.03 -43.04c-3.63,-6.64 -7.16,-13.31 -10.6,-20.01l-88.24 39.68c-3.43,1.56 -7.48,0.03 -9.03,-3.4 -1.56,-3.43 -0.04,-7.48 3.4,-9.03l87.73 -39.46c-3.27,-6.61 -6.44,-13.25 -9.53,-19.92l-89.79 36.08c-3.49,1.41 -7.47,-0.29 -8.88,-3.78 -1.41,-3.5 0.29,-7.48 3.78,-8.88l89.25 -35.86c-2.33,-5.26 -4.61,-10.53 -6.84,-15.81l-90.99 32.9c-3.54,1.29 -7.45,-0.55 -8.73,-4.08 -1.29,-3.53 0.54,-7.45 4.08,-8.73l90.46 -32.71c-2.15,-5.34 -4.24,-10.69 -6.28,-16.06l-92.11 29.71c-3.58,1.15 -7.42,-0.81 -8.58,-4.39 -1.16,-3.58 0.81,-7.42 4.39,-8.58l91.56 -29.53c-1.96,-5.4 -3.85,-10.82 -5.7,-16.25l-93.12 26.45c-3.61,1.04 -7.39,-1.06 -8.42,-4.68 -1.04,-3.62 1.07,-7.4 4.69,-8.43l92.56 -26.3c-1.77,-5.47 -3.47,-10.94 -5.13,-16.43l-94 23.18c-3.66,0.91 -7.37,-1.33 -8.28,-4.99 -0.91,-3.66 1.33,-7.37 4.99,-8.28l93.45 -23.04c-1.57,-5.52 -3.08,-11.05 -4.54,-16.59l-94.79 19.89c-3.69,0.77 -7.31,-1.61 -8.09,-5.3 -0.77,-3.69 1.6,-7.31 5.29,-8.08l94.21 -19.76c-1.37,-5.57 -2.69,-11.16 -3.95,-16.74l-95.45 16.55c-3.71,0.64 -7.25,-1.84 -7.89,-5.56 -0.65,-3.72 1.84,-7.25 5.55,-7.9l94.87 -16.45c-1.18,-5.62 -2.3,-11.25 -3.37,-16.89l-95.99 13.2c-3.72,0.51 -7.16,-2.1 -7.67,-5.82 -0.51,-3.73 2.1,-7.16 5.82,-7.67l95.41 -13.12c-0.98,-5.66 -1.91,-11.33 -2.78,-17.01l-96.41 9.83c-3.74,0.38 -7.09,-2.34 -7.48,-6.09 -0.39,-3.74 2.34,-7.09 6.08,-7.48l95.84 -9.77c-0.79,-5.69 -1.51,-11.38 -2.19,-17.08l-96.71 6.44c-3.75,0.25 -7,-2.59 -7.25,-6.35 -0.25,-3.75 2.59,-7.01 6.35,-7.25l96.12 -6.41c-0.59,-5.71 -1.12,-11.42 -1.59,-17.14l-96.89 3.05c-3.77,0.11 -6.92,-2.85 -7.03,-6.62 -0.12,-3.76 2.85,-6.91 6.61,-7.02l96.29 -3.03c-0.38,-5.73 -0.71,-11.46 -0.98,-17.19l-96.94 -0.35c-3.77,-0.01 -6.82,-3.07 -6.81,-6.84 0.02,-3.76 3.08,-6.82 6.85,-6.8l96.36 0.34c-0.19,-5.74 -0.32,-11.48 -0.39,-17.22l-96.88 -3.75c-3.75,-0.14 -6.68,-3.31 -6.54,-7.06 0.15,-3.76 3.32,-6.69 7.07,-6.54l96.29 3.72c0.02,-5.74 0.11,-11.48 0.23,-17.23l-96.69 -7.14c-3.76,-0.27 -6.59,-3.53 -6.31,-7.29 0.27,-3.76 3.53,-6.59 7.29,-6.31l96.12 7.1c0.21,-5.74 0.49,-11.47 0.82,-17.2l-96.39 -10.53c-3.74,-0.4 -6.45,-3.77 -6.05,-7.52 0.41,-3.74 3.77,-6.45 7.52,-6.05l95.8 10.47c0.42,-5.72 0.89,-11.43 1.42,-17.14l-95.96 -13.9c-3.73,-0.54 -6.32,-4.02 -5.78,-7.75 0.54,-3.74 4.01,-6.32 7.75,-5.78l95.35 13.81c0.62,-5.7 1.29,-11.39 2.02,-17.09l-95.41 -17.25c-3.7,-0.68 -6.16,-4.23 -5.48,-7.94 0.68,-3.7 4.24,-6.15 7.94,-5.48l94.78 17.15c0.82,-5.68 1.69,-11.36 2.61,-17.02l-94.72 -20.58c-3.68,-0.8 -6.02,-4.44 -5.21,-8.13 0.8,-3.68 4.44,-6.02 8.12,-5.21l94.13 20.45c1.01,-5.65 2.08,-11.28 3.2,-16.91l-93.93 -23.88c-3.65,-0.94 -5.86,-4.66 -4.92,-8.32 0.94,-3.65 4.66,-5.85 8.32,-4.91l93.31 23.73c1.21,-5.6 2.47,-11.2 3.79,-16.78l-92.99 -27.16c-3.63,-1.05 -5.71,-4.84 -4.65,-8.46 1.05,-3.63 4.85,-5.71 8.47,-4.65l92.41 26.98c1.41,-5.56 2.87,-11.1 4.38,-16.64l-91.96 -30.39c-3.57,-1.17 -5.52,-5.04 -4.34,-8.61 1.18,-3.58 5.04,-5.53 8.62,-4.35l91.39 30.2c1.59,-5.51 3.25,-11 4.96,-16.49l-90.83 -33.59c-3.53,-1.32 -5.33,-5.25 -4.01,-8.77 1.32,-3.53 5.24,-5.32 8.77,-4.01l90.23 33.37c1.79,-5.45 3.64,-10.88 5.54,-16.3l-89.58 -36.75c-3.49,-1.44 -5.15,-5.43 -3.71,-8.92 1.45,-3.48 5.44,-5.15 8.92,-3.7l88.99 36.5c1.98,-5.38 4.01,-10.75 6.1,-16.09l-88.2 -39.85c-3.43,-1.55 -4.96,-5.6 -3.4,-9.03 1.55,-3.43 5.6,-4.96 9.03,-3.4l87.65 39.59c2.16,-5.31 4.39,-10.6 6.67,-15.87l-86.76 -42.92c-3.37,-1.68 -4.74,-5.78 -3.06,-9.14 1.68,-3.37 5.78,-4.75 9.15,-3.07l86.18 42.63c2.35,-5.22 4.76,-10.43 7.22,-15.62l-85.18 -45.92c-3.31,-1.8 -4.55,-5.95 -2.76,-9.26 1.8,-3.32 5.95,-4.56 9.26,-2.76l84.64 45.63c2.54,-5.14 5.13,-10.26 7.77,-15.36l-83.52 -48.88c-3.24,-1.91 -4.33,-6.09 -2.42,-9.34 1.92,-3.24 6.09,-4.32 9.34,-2.41l82.98 48.56c2.72,-5.05 5.49,-10.08 8.31,-15.09l-81.74 -51.77c-3.18,-2.01 -4.13,-6.23 -2.12,-9.41 2.02,-3.18 6.23,-4.13 9.42,-2.12l81.24 51.46c2.9,-4.95 5.84,-9.88 8.84,-14.78l-79.89 -54.61c-3.11,-2.13 -3.91,-6.38 -1.78,-9.49 2.13,-3.11 6.38,-3.91 9.49,-1.78l79.4 54.28c3.07,-4.83 6.18,-9.65 9.35,-14.44l-77.96 -57.4c-3.03,-2.25 -3.68,-6.53 -1.43,-9.56 2.24,-3.04 6.53,-3.69 9.56,-1.44l77.47 57.04c3.23,-4.72 6.51,-9.42 9.84,-14.09l-75.92 -60.12c-2.95,-2.35 -3.44,-6.65 -1.09,-9.6 2.35,-2.95 6.64,-3.44 9.6,-1.1l75.44 59.74c3.4,-4.6 6.84,-9.18 10.34,-13.74l-73.8 -62.77c-2.87,-2.45 -3.2,-6.76 -0.75,-9.63 2.45,-2.87 6.77,-3.21 9.64,-0.76l73.32 62.37c3.56,-4.48 7.16,-8.94 10.82,-13.38l-71.58 -65.34c-2.77,-2.54 -2.96,-6.86 -0.41,-9.63 2.55,-2.78 6.86,-2.97 9.63,-0.42l71.12 64.93c3.72,-4.37 7.48,-8.71 11.3,-13.01l-69.27 -67.83c-2.68,-2.64 -2.71,-6.96 -0.07,-9.64 2.63,-2.68 6.95,-2.71 9.63,-0.07l68.83 67.39c3.86,-4.23 7.77,-8.44 11.74,-12.61l-66.85 -70.21c-2.6,-2.72 -2.49,-7.04 0.23,-9.64 2.72,-2.6 7.04,-2.49 9.64,0.23l66.45 69.8c2,-2.05 4.01,-4.09 6.04,-6.12l9.67 9.67zm-546.79 1685.97l-133.69 123.3c-2.76,2.56 -7.08,2.39 -9.64,-0.37 -2.55,-2.77 -2.38,-7.09 0.38,-9.64l133.7 -123.31c-12.34,-13.48 -24.41,-27.13 -36.2,-40.92l-139.66 118.74c-2.86,2.45 -7.18,2.12 -9.63,-0.75 -2.46,-2.87 -2.12,-7.19 0.75,-9.64l139.71 -118.78c-8.71,-10.36 -17.25,-20.81 -25.65,-31.33l-147.22 106.11c-3.06,2.2 -7.32,1.5 -9.53,-1.55 -2.2,-3.06 -1.51,-7.32 1.55,-9.53l146.71 -105.73c-9.06,-11.55 -17.93,-23.2 -26.62,-34.93l-150.89 100.68c-3.14,2.09 -7.39,1.24 -9.49,-1.89 -2.09,-3.14 -1.25,-7.39 1.89,-9.49l150.39 -100.34c-11.12,-15.28 -21.93,-30.72 -32.45,-46.3l-155.11 93.89c-3.22,1.96 -7.42,0.93 -9.37,-2.3 -1.95,-3.23 -0.92,-7.42 2.31,-9.37l154.58 -93.59c-9.35,-14.12 -18.44,-28.37 -27.3,-42.72l-158.73 87.54c-3.3,1.82 -7.45,0.61 -9.27,-2.68 -1.81,-3.3 -0.61,-7.45 2.69,-9.26l158.19 -87.25c-8.71,-14.4 -17.17,-28.91 -25.39,-43.52l-162.07 81.08c-3.35,1.69 -7.45,0.34 -9.14,-3.02 -1.69,-3.36 -0.34,-7.45 3.02,-9.15l161.56 -80.82c-8.4,-15.24 -16.53,-30.58 -24.39,-46.02l-165.25 74.32c-3.44,1.56 -7.48,0.03 -9.04,-3.4 -1.55,-3.43 -0.03,-7.48 3.41,-9.03l164.73 -74.09c-7.61,-15.27 -14.95,-30.63 -22.04,-46.08l-168.13 67.56c-3.5,1.41 -7.48,-0.29 -8.88,-3.78 -1.41,-3.5 0.28,-7.48 3.78,-8.89l167.59 -67.33c-5.77,-12.88 -11.36,-25.82 -16.78,-38.81l-170.4 61.63c-3.54,1.28 -7.45,-0.55 -8.74,-4.09 -1.28,-3.53 0.55,-7.45 4.09,-8.73l169.86 -61.43c-5.31,-13.07 -10.44,-26.2 -15.39,-39.38l-172.49 55.63c-3.58,1.15 -7.43,-0.81 -8.58,-4.39 -1.16,-3.58 0.8,-7.42 4.38,-8.58l171.94 -55.44c-4.85,-13.25 -9.51,-26.55 -14,-39.9l-174.36 49.55c-3.62,1.04 -7.4,-1.06 -8.43,-4.68 -1.04,-3.62 1.07,-7.4 4.68,-8.43l173.81 -49.4c-4.38,-13.4 -8.57,-26.85 -12.58,-40.34l-176.03 43.42c-3.66,0.91 -7.37,-1.33 -8.28,-4.99 -0.91,-3.66 1.33,-7.37 4.99,-8.27l175.47 -43.28c-3.9,-13.55 -7.62,-27.13 -11.16,-40.75l-177.49 37.23c-3.69,0.78 -7.31,-1.59 -8.09,-5.29 -0.77,-3.69 1.6,-7.31 5.29,-8.09l176.91 -37.11c-3.42,-13.66 -6.66,-27.37 -9.72,-41.1l-178.72 30.99c-3.72,0.64 -7.25,-1.84 -7.9,-5.56 -0.65,-3.71 1.84,-7.25 5.56,-7.9l178.15 -30.89c-2.95,-13.79 -5.71,-27.61 -8.28,-41.46l-179.75 24.72c-3.72,0.51 -7.16,-2.1 -7.67,-5.82 -0.51,-3.72 2.1,-7.16 5.82,-7.67l179.16 -24.64c-2.46,-13.88 -4.74,-27.78 -6.83,-41.71l-180.52 18.4c-3.75,0.39 -7.1,-2.34 -7.49,-6.08 -0.38,-3.75 2.34,-7.1 6.09,-7.49l179.95 -18.35c-1.97,-13.95 -3.76,-27.92 -5.36,-41.92l-181.1 12.07c-3.75,0.25 -7,-2.6 -7.25,-6.35 -0.25,-3.76 2.59,-7.01 6.35,-7.26l180.5 -12.03c-1.48,-14.01 -2.78,-28.04 -3.89,-42.08l-181.44 5.71c-3.76,0.11 -6.92,-2.85 -7.03,-6.61 -0.11,-3.77 2.85,-6.92 6.61,-7.03l180.84 -5.69c-1,-14.05 -1.81,-28.12 -2.43,-42.19l-181.53 -0.65c-3.77,-0.01 -6.82,-3.07 -6.81,-6.84 0.02,-3.77 3.08,-6.82 6.84,-6.81l180.95 0.65c-0.5,-14.08 -0.82,-28.17 -0.95,-42.26l-181.41 -7.01c-3.75,-0.15 -6.68,-3.32 -6.53,-7.07 0.14,-3.76 3.31,-6.69 7.06,-6.54l180.81 7 0 -1.29c0,-13.66 0.19,-27.33 0.54,-40.99l-181.05 -13.37c-3.75,-0.27 -6.58,-3.54 -6.31,-7.29 0.27,-3.76 3.54,-6.59 7.3,-6.32l180.46 13.33c0.48,-14.07 1.17,-28.14 2.02,-42.21l-180.48 -19.71c-3.75,-0.4 -6.46,-3.77 -6.05,-7.52 0.41,-3.74 3.78,-6.45 7.52,-6.05l179.88 19.65c0.97,-14.05 2.14,-28.08 3.48,-42.1l-179.66 -26.02c-3.74,-0.55 -6.33,-4.02 -5.78,-7.75 0.54,-3.74 4.01,-6.33 7.74,-5.78l179.06 25.93c1.46,-14 3.12,-27.99 4.95,-41.96l-178.63 -32.3c-3.71,-0.68 -6.16,-4.24 -5.48,-7.94 0.67,-3.7 4.23,-6.16 7.93,-5.48l178.01 32.19c1.94,-13.94 4.1,-27.86 6.41,-41.76l-177.35 -38.54c-3.69,-0.81 -6.02,-4.45 -5.22,-8.13 0.8,-3.69 4.44,-6.02 8.13,-5.22l176.75 38.41c2.43,-13.86 5.05,-27.7 7.85,-41.52l-175.86 -44.72c-3.65,-0.94 -5.86,-4.66 -4.92,-8.31 0.94,-3.65 4.66,-5.86 8.32,-4.92l175.24 44.57c2.91,-13.77 6.02,-27.51 9.3,-41.21l-174.13 -50.85c-3.62,-1.06 -5.7,-4.85 -4.64,-8.47 1.05,-3.62 4.84,-5.7 8.46,-4.65l173.55 50.68c3.4,-13.66 6.98,-27.28 10.75,-40.86l-172.2 -56.91c-3.57,-1.18 -5.52,-5.04 -4.34,-8.62 1.18,-3.58 5.04,-5.52 8.62,-4.34l171.62 56.71c3.87,-13.54 7.94,-27.03 12.18,-40.48l-170.07 -62.89c-3.53,-1.32 -5.32,-5.25 -4.01,-8.77 1.32,-3.53 5.25,-5.33 8.77,-4.01l169.47 62.67c4.34,-13.38 8.88,-26.73 13.59,-40.02l-167.73 -68.8c-3.48,-1.44 -5.14,-5.44 -3.7,-8.92 1.44,-3.49 5.43,-5.15 8.92,-3.71l167.12 68.56c4.82,-13.22 9.81,-26.39 14.98,-39.51l-165.15 -74.62c-3.43,-1.55 -4.96,-5.6 -3.4,-9.03 1.55,-3.44 5.6,-4.96 9.03,-3.4l164.6 74.36c5.28,-13.05 10.74,-26.04 16.37,-38.97l-162.44 -80.36c-3.36,-1.68 -4.74,-5.77 -3.05,-9.15 1.68,-3.36 5.77,-4.74 9.14,-3.06l161.86 80.08c5.73,-12.85 11.65,-25.64 17.74,-38.37l-159.5 -85.99c-3.32,-1.79 -4.56,-5.94 -2.76,-9.26 1.79,-3.32 5.94,-4.55 9.26,-2.76l158.95 85.7c6.19,-12.64 12.55,-25.2 19.09,-37.71l-156.4 -91.54c-3.24,-1.9 -4.33,-6.09 -2.42,-9.33 1.91,-3.25 6.09,-4.33 9.34,-2.42l155.85 91.22c6.62,-12.41 13.42,-24.75 20.4,-37.03l-153.09 -96.95c-3.18,-2.02 -4.13,-6.23 -2.11,-9.42 2.01,-3.18 6.22,-4.13 9.41,-2.12l152.59 96.65c7.06,-12.17 14.29,-24.26 21.69,-36.27l-149.62 -102.29c-3.11,-2.13 -3.9,-6.38 -1.77,-9.49 2.12,-3.11 6.37,-3.9 9.48,-1.78l149.13 101.96c7.48,-11.91 15.13,-23.73 22.95,-35.48l-145.99 -107.5c-3.04,-2.25 -3.68,-6.53 -1.44,-9.56 2.25,-3.04 6.53,-3.68 9.57,-1.44l145.5 107.14c7.89,-11.62 15.95,-23.17 24.18,-34.63l-142.17 -112.59c-2.95,-2.35 -3.45,-6.65 -1.1,-9.6 2.35,-2.95 6.65,-3.44 9.6,-1.09l141.7 112.21c8.29,-11.35 16.75,-22.6 25.38,-33.77l-138.19 -117.55c-2.87,-2.45 -3.21,-6.76 -0.76,-9.63 2.46,-2.87 6.77,-3.21 9.64,-0.76l137.73 117.15c8.68,-11.04 17.54,-22 26.55,-32.86l-134.03 -122.36c-2.78,-2.54 -2.96,-6.86 -0.42,-9.63 2.55,-2.78 6.86,-2.97 9.64,-0.42l133.58 121.94c9.07,-10.73 18.3,-21.37 27.7,-31.92l-129.7 -127.02c-2.69,-2.64 -2.72,-6.96 -0.08,-9.64 2.64,-2.68 6.96,-2.72 9.64,-0.08l129.26 126.59c9.44,-10.41 19.03,-20.73 28.79,-30.95l-125.18 -131.5c-2.6,-2.72 -2.49,-7.03 0.23,-9.63 2.72,-2.6 7.04,-2.5 9.64,0.22l124.78 131.09c2.01,-2.08 4.03,-4.14 6.05,-6.21l9.68 9.68c-3,3.06 -5.99,6.12 -8.96,9.2 -0.35,0.93 -0.91,1.81 -1.68,2.55 -0.62,0.59 -1.33,1.04 -2.08,1.35 -11.57,12.06 -22.91,24.26 -34.02,36.58 -0.31,0.98 -0.86,1.91 -1.63,2.69 -0.61,0.62 -1.32,1.11 -2.08,1.44 -11.1,12.4 -21.96,24.94 -32.6,37.6 -0.27,1.04 -0.79,2.03 -1.57,2.87 -0.63,0.68 -1.36,1.21 -2.15,1.57 -10.6,12.71 -20.97,25.55 -31.11,38.51 -0.22,1.1 -0.71,2.16 -1.5,3.08 -0.64,0.75 -1.41,1.33 -2.24,1.73 -10.09,13 -19.96,26.12 -29.58,39.35 -0.17,1.16 -0.64,2.28 -1.41,3.26 -0.65,0.81 -1.44,1.43 -2.3,1.86 -9.58,13.28 -18.93,26.68 -28.05,40.18 -0.1,1.21 -0.53,2.4 -1.31,3.44 -0.64,0.87 -1.44,1.54 -2.34,2 -9.07,13.57 -17.92,27.24 -26.52,41.01 -0.06,1.23 -0.44,2.46 -1.19,3.55 -0.62,0.91 -1.43,1.62 -2.34,2.12 -8.56,13.84 -16.89,27.78 -24.99,41.82 0,1.24 -0.34,2.51 -1.06,3.64 -0.6,0.95 -1.4,1.71 -2.32,2.24 -8.06,14.1 -15.88,28.31 -23.46,42.6 0.05,1.26 -0.25,2.55 -0.94,3.72 -0.57,0.98 -1.35,1.76 -2.25,2.32 -7.54,14.36 -14.85,28.82 -21.92,43.36 0.1,1.27 -0.15,2.58 -0.8,3.79 -0.55,1.01 -1.31,1.82 -2.2,2.42 -7.04,14.62 -13.83,29.33 -20.38,44.11 0.13,1.26 -0.08,2.56 -0.68,3.77 -0.5,1.01 -1.22,1.83 -2.07,2.46 -6.52,14.88 -12.8,29.85 -18.84,44.88 0.17,1.23 0.01,2.53 -0.54,3.75 -0.47,1.01 -1.14,1.86 -1.96,2.52 -6,15.12 -11.76,30.32 -17.28,45.58 0.2,1.21 0.07,2.49 -0.43,3.72 -0.41,0.99 -1.04,1.84 -1.8,2.51 -5.48,15.38 -10.73,30.83 -15.72,46.35 0.21,1.16 0.12,2.41 -0.32,3.6 -0.37,0.98 -0.94,1.82 -1.64,2.51 -4.96,15.61 -9.67,31.28 -14.12,47.01 0.23,1.14 0.18,2.34 -0.21,3.52 -0.32,0.98 -0.84,1.83 -1.5,2.54 -4.42,15.81 -8.59,31.68 -12.5,47.6 0.25,1.11 0.24,2.29 -0.1,3.45 -0.28,0.95 -0.74,1.79 -1.34,2.5 -3.88,16.03 -7.51,32.1 -10.88,48.23 0.26,1.06 0.28,2.21 -0.02,3.34 -0.23,0.92 -0.64,1.73 -1.17,2.44 -3.33,16.21 -6.41,32.47 -9.22,48.76 0.27,1.03 0.32,2.13 0.07,3.23 -0.19,0.9 -0.55,1.72 -1.05,2.43 -2.76,16.37 -5.28,32.77 -7.53,49.19 0.3,1 0.37,2.07 0.17,3.17 -0.16,0.88 -0.48,1.69 -0.94,2.4 -2.19,16.46 -4.13,32.95 -5.8,49.47 0.33,0.98 0.44,2.06 0.28,3.15 -0.13,0.89 -0.43,1.72 -0.85,2.45 -1.63,16.54 -2.99,33.11 -4.09,49.69 0.35,0.96 0.49,2 0.38,3.08 -0.1,0.86 -0.35,1.66 -0.72,2.39 -1.05,16.63 -1.85,33.28 -2.37,49.93 0.38,0.93 0.55,1.96 0.47,3.03 -0.06,0.86 -0.28,1.67 -0.63,2.41 -0.42,14.78 -0.64,29.57 -0.64,44.36l0.01 5.62c0.41,0.92 0.62,1.95 0.58,3.03 -0.04,0.86 -0.23,1.68 -0.55,2.43 0.11,16.64 0.49,33.29 1.13,49.92 0.46,0.92 0.71,1.95 0.71,3.04 -0.01,0.89 -0.18,1.73 -0.49,2.51 0.7,16.6 1.66,33.19 2.87,49.77 0.5,0.91 0.8,1.95 0.83,3.06 0.03,0.9 -0.12,1.76 -0.4,2.55 1.27,16.53 2.8,33.05 4.59,49.55 0.55,0.9 0.89,1.94 0.96,3.07 0.06,0.91 -0.06,1.79 -0.33,2.61 1.85,16.44 3.95,32.87 6.31,49.26 0.6,0.89 0.99,1.94 1.11,3.08 0.1,0.94 0,1.85 -0.27,2.7 2.42,16.33 5.09,32.63 8.01,48.9 0.65,0.88 1.09,1.93 1.25,3.09 0.13,0.95 0.06,1.88 -0.18,2.75 2.97,16.18 6.19,32.31 9.67,48.41 0.72,0.88 1.24,1.96 1.45,3.16 0.17,1 0.12,1.99 -0.12,2.91 3.52,15.99 7.29,31.92 11.31,47.81 0.8,0.87 1.37,1.96 1.63,3.2 0.22,1.02 0.19,2.05 -0.04,3.01 4.06,15.79 8.37,31.53 12.94,47.22 0.85,0.85 1.49,1.93 1.8,3.19 0.26,1.05 0.26,2.1 0.04,3.09 4.61,15.61 9.46,31.16 14.56,46.64 0.89,0.82 1.58,1.9 1.94,3.15 0.3,1.06 0.34,2.13 0.14,3.14 5.15,15.4 10.53,30.75 16.16,46.02 0.95,0.8 1.69,1.85 2.1,3.11 0.35,1.07 0.41,2.17 0.25,3.21 5.66,15.17 11.57,30.28 17.72,45.31 1,0.76 1.8,1.81 2.26,3.08 0.39,1.07 0.49,2.18 0.35,3.23 6.19,14.94 12.61,29.8 19.27,44.58 1.05,0.73 1.9,1.77 2.41,3.03 0.43,1.08 0.57,2.2 0.46,3.28 7.91,17.33 16.15,34.55 24.71,51.65 1.07,0.69 1.96,1.68 2.53,2.92 0.47,1.06 0.66,2.18 0.59,3.27 8.76,17.3 17.87,34.47 27.31,51.51 1.07,0.64 1.98,1.58 2.58,2.78 0.52,1.02 0.75,2.1 0.73,3.17 9.21,16.45 18.74,32.78 28.59,48.97l0 0 0.06 0.03 0.03 0.02 0.02 0.01 0.05 0.03 0.05 0.03 0.02 0.01 0.03 0.02 0.05 0.03 0.04 0.03 0.02 0.01 0.03 0.02 0.05 0.03 0.05 0.03 0.01 0.01 0.04 0.03 0.05 0.03 0.04 0.03 0 0 0.05 0.04 0.05 0.03 0.04 0.03 0.01 0.01 0.04 0.03 0.05 0.04 0.03 0.02 0.02 0.01 0.04 0.04 0.05 0.04 0.02 0.01 0.02 0.03 0.05 0.03 0.04 0.04 0.01 0.01 0.03 0.03 0.05 0.04 0.05 0.04 0 0 0.04 0.04 0.04 0.04 0.04 0.04 0 0 0.04 0.04 0.05 0.04 0.03 0.03 0.01 0.01 0.04 0.05 0.04 0.04 0.03 0.03 0.01 0.01 0.05 0.05 0.03 0.04 0.02 0.02 0.02 0.02 0.04 0.05 0.04 0.04 0.01 0.02 0.03 0.03 0.04 0.05 0.04 0.04 0 0.01 0.04 0.04 0.07 0.09 0.03 0.05 0.04 0.05 0.03 0.04 0.01 0.01 0.03 0.05 0.04 0.05 0.02 0.03 0.01 0.02 0.04 0.05 0.03 0.05 0.02 0.03 0.02 0.02 0.03 0.05 0.03 0.05 0.01 0.02 0.02 0.04 0.04 0.05 0.03 0.05 0 0.01 0.03 0.05 0.03 0.05 0.03 0.05 0.02 0.05 0.03 0.05 0.02 0.04 0.01 0.02 0.02 0.03 0.02 0.05 0.02 0.04 0.02 0.04 0.01 0.01 0.02 0.05 0.02 0.04 0.02 0.05 0 0 0.02 0.05 0.02 0.04 0.03 0.05 0 0.02 0.01 0.02 0.02 0.05 0.02 0.05 0.02 0.04 0 0.01 0.02 0.04 0.02 0.05 0.02 0.05 0 0.01 0.01 0.04 0.02 0.04 0.02 0.05 0.01 0.03 0 0.02 0.02 0.05 0.01 0.04 0.02 0.05 0 0.01 0.02 0.04 0.01 0.05 0.01 0.05 0.01 0.02 0 0.02 0.02 0.05 0.01 0.05 0.01 0.04 0 0.01 0.02 0.05 0.01 0.05 0.01 0.04 0 0.02 0.01 0.03 0.01 0.05 0.01 0.05 0.01 0.03 0 0.02 0.01 0.05 0.01 0.04 0.01 0.05 0.01 0.05 0.01 0.05 0.01 0.05 0 0.02 0 0.03 0.01 0.05 0 0.05 0.01 0.03 0 0.01 0.01 0.05 0 0.05 0.01 0.05 0 0.01 0 0.04 0.01 0.05 0 0.05 0.01 0.02 0 0.02 0 0.06 0 0.04 0.01 0.05 0 0 0 0.05 0 0.05 0 0.05c9.95,16.19 20.21,32.25 30.79,48.15 1.08,0.56 2.03,1.41 2.7,2.53 0.57,0.93 0.88,1.95 0.96,2.97 11.7,17.4 23.77,34.63 36.23,51.67 1.06,0.51 2,1.3 2.71,2.35 0.58,0.87 0.93,1.83 1.08,2.8 10.03,13.61 20.31,27.09 30.84,40.44 1.02,0.48 1.93,1.22 2.63,2.19 0.59,0.81 0.97,1.71 1.15,2.63 37.3,46.92 77.65,92.21 121.04,135.61 13.49,13.49 27.16,26.68 41.01,39.58 0.8,0.27 1.57,0.69 2.25,1.27 0.85,0.72 1.49,1.61 1.89,2.57 12.2,11.29 24.54,22.35 37.01,33.18 0.84,0.23 1.65,0.64 2.38,1.21 0.9,0.71 1.58,1.61 2.01,2.59 12.55,10.83 25.23,21.41 38.03,31.78 0.88,0.2 1.73,0.57 2.5,1.14 0.96,0.7 1.68,1.6 2.14,2.59 12.86,10.33 25.84,20.43 38.94,30.29 0.94,0.16 1.86,0.52 2.7,1.08 1.03,0.7 1.8,1.63 2.31,2.68 13.14,9.82 26.41,19.4 39.79,28.76 0.98,0.11 1.96,0.44 2.85,1.01 1.07,0.68 1.89,1.61 2.43,2.67 13.43,9.31 26.97,18.39 40.62,27.24 1.02,0.06 2.05,0.36 2.99,0.91 1.14,0.66 2.02,1.6 2.59,2.69 13.71,8.8 27.52,17.37 41.43,25.7 1.04,0.03 2.09,0.29 3.07,0.81 1.17,0.63 2.1,1.56 2.71,2.64 13.97,8.3 28.05,16.36 42.22,24.18 1.07,-0.03 2.16,0.2 3.18,0.7 1.22,0.61 2.18,1.52 2.83,2.61 14.23,7.78 28.55,15.32 42.96,22.63 1.08,-0.07 2.18,0.11 3.23,0.58 1.26,0.57 2.26,1.46 2.95,2.54 14.49,7.26 29.08,14.3 43.75,21.1 1.05,-0.11 2.15,0.04 3.2,0.47 1.25,0.51 2.27,1.35 3,2.38 14.76,6.76 29.6,13.29 44.52,19.57 1.05,-0.13 2.15,-0.02 3.21,0.37 1.27,0.47 2.31,1.27 3.08,2.27 15,6.24 30.07,12.24 45.22,18 1.04,-0.15 2.12,-0.08 3.18,0.27 1.24,0.41 2.3,1.15 3.08,2.09 15.26,5.73 30.58,11.21 45.97,16.45 1,-0.18 2.06,-0.13 3.11,0.17 1.24,0.36 2.31,1.05 3.13,1.95 15.48,5.2 31.03,10.15 46.64,14.86 0.96,-0.19 1.98,-0.18 2.99,0.08 1.23,0.3 2.29,0.93 3.13,1.76 15.72,4.67 31.49,9.09 47.31,13.26 0.92,-0.2 1.91,-0.22 2.89,-0.01 1.2,0.26 2.26,0.81 3.11,1.57 15.94,4.14 31.93,8.03 47.97,11.66 0.88,-0.21 1.82,-0.25 2.76,-0.08 1.16,0.2 2.19,0.69 3.05,1.37 16.14,3.59 32.33,6.94 48.56,10.02 0.84,-0.22 1.75,-0.28 2.67,-0.14 1.13,0.16 2.15,0.58 3.02,1.21 16.28,3.03 32.6,5.81 48.95,8.33 0.84,-0.25 1.73,-0.33 2.64,-0.24 1.15,0.12 2.2,0.52 3.1,1.12 16.39,2.46 32.82,4.67 49.28,6.61 0.8,-0.25 1.66,-0.36 2.55,-0.3 1.11,0.08 2.13,0.43 3.03,0.96 16.51,1.9 33.05,3.53 49.6,4.9 0.78,-0.27 1.63,-0.41 2.51,-0.38 1.09,0.04 2.12,0.34 3.01,0.83 16.58,1.31 33.18,2.38 49.79,3.18 0.77,-0.31 1.61,-0.47 2.49,-0.47 1.09,0 2.11,0.25 3.03,0.7 16.64,0.74 33.29,1.24 49.95,1.46 0.75,-0.32 1.56,-0.51 2.41,-0.54 1.07,-0.04 2.1,0.17 3.02,0.58 5.04,0.06 10.08,0.09 15.13,0.09 11.62,0 23.25,-0.12 34.87,-0.38 0.73,-0.34 1.54,-0.56 2.39,-0.62 1.09,-0.08 2.13,0.1 3.08,0.49 16.64,-0.42 33.27,-1.11 49.89,-2.06 0.73,-0.37 1.53,-0.61 2.39,-0.71 1.1,-0.12 2.16,0.03 3.12,0.39 16.61,-1 33.2,-2.27 49.77,-3.79 0.71,-0.4 1.51,-0.68 2.37,-0.81 1.1,-0.15 2.17,-0.04 3.15,0.29 16.53,-1.58 33.05,-3.42 49.53,-5.52 0.72,-0.44 1.53,-0.76 2.41,-0.92 1.1,-0.2 2.19,-0.12 3.2,0.2 16.42,-2.15 32.82,-4.56 49.18,-7.23 0.72,-0.5 1.54,-0.86 2.45,-1.05 1.12,-0.24 2.24,-0.19 3.27,0.1 16.29,-2.71 32.54,-5.68 48.76,-8.91 0.71,-0.54 1.54,-0.95 2.46,-1.19 1.15,-0.29 2.3,-0.27 3.37,0.01 16.12,-3.27 32.21,-6.79 48.24,-10.57 0.71,-0.6 1.55,-1.07 2.5,-1.35 1.18,-0.34 2.38,-0.35 3.49,-0.08 15.94,-3.82 31.84,-7.89 47.68,-12.22 0.7,-0.65 1.54,-1.16 2.5,-1.48 1.19,-0.39 2.42,-0.43 3.56,-0.19 15.75,-4.37 31.45,-8.98 47.09,-13.84 0.68,-0.71 1.53,-1.27 2.51,-1.63 1.21,-0.45 2.46,-0.53 3.64,-0.3 15.55,-4.91 31.04,-10.06 46.46,-15.46 0.66,-0.74 1.51,-1.35 2.49,-1.75 1.2,-0.49 2.46,-0.61 3.65,-0.42 15.32,-5.44 30.59,-11.12 45.78,-17.04 0.65,-0.8 1.49,-1.46 2.49,-1.9 1.21,-0.55 2.5,-0.71 3.72,-0.54 15.1,-5.96 30.13,-12.17 45.07,-18.61 0.62,-0.82 1.43,-1.51 2.42,-2 1.19,-0.59 2.48,-0.8 3.71,-0.67 14.89,-6.5 29.7,-13.22 44.41,-20.2 0.6,-0.83 1.39,-1.55 2.35,-2.06 1.17,-0.63 2.43,-0.87 3.66,-0.79 14.64,-7.02 29.2,-14.27 43.66,-21.76 0.57,-0.86 1.33,-1.6 2.27,-2.15 1.15,-0.67 2.41,-0.96 3.64,-0.92 14.4,-7.54 28.7,-15.3 42.91,-23.31 0.52,-0.85 1.25,-1.6 2.16,-2.18 1.1,-0.7 2.32,-1.04 3.53,-1.06 14.16,-8.05 28.22,-16.33 42.18,-24.86 0.5,-0.85 1.19,-1.61 2.06,-2.21 1.05,-0.71 2.23,-1.09 3.42,-1.16 13.91,-8.57 27.72,-17.38 41.41,-26.42 0.46,-0.83 1.1,-1.57 1.92,-2.17 1,-0.73 2.13,-1.15 3.29,-1.28 13.63,-9.08 27.15,-18.39 40.55,-27.94 0.43,-0.82 1.04,-1.57 1.81,-2.18 0.97,-0.76 2.07,-1.22 3.21,-1.39 13.33,-9.57 26.55,-19.39 39.64,-29.43 0.4,-0.8 0.97,-1.53 1.69,-2.14 0.9,-0.76 1.93,-1.25 3.01,-1.48 13.06,-10.09 26.01,-20.41 38.83,-30.97 0.36,-0.75 0.88,-1.45 1.53,-2.05 0.81,-0.74 1.75,-1.24 2.74,-1.52 12.79,-10.62 25.46,-21.45 37.99,-32.54 0.34,-0.7 0.81,-1.36 1.4,-1.94 0.74,-0.73 1.62,-1.25 2.55,-1.57 12.46,-11.09 24.8,-22.4 36.99,-33.96 0.31,-0.7 0.75,-1.36 1.31,-1.95 0.73,-0.75 1.58,-1.3 2.5,-1.65 5.4,-5.14 10.76,-10.33 16.1,-15.57l9.67 9.67c-4.34,4.27 -8.7,8.49 -13.08,12.69l130.66 125.25c2.71,2.61 2.8,6.93 0.18,9.64 -2.6,2.71 -6.92,2.8 -9.63,0.19l-131.11 -125.69c-10.27,9.7 -20.65,19.23 -31.12,28.6l126.16 129.74c2.63,2.69 2.58,7.01 -0.11,9.63 -2.69,2.64 -7.01,2.58 -9.64,-0.11l-126.61 -130.2c-10.6,9.33 -21.31,18.49 -32.1,27.49l121.51 134.06c2.54,2.78 2.33,7.1 -0.45,9.63 -2.79,2.54 -7.1,2.34 -9.64,-0.45l-121.93 -134.51c-10.92,8.95 -21.93,17.72 -33.02,26.34l116.7 138.18c2.44,2.88 2.08,7.19 -0.8,9.63 -2.88,2.45 -7.19,2.09 -9.63,-0.79l-117.11 -138.66c-11.22,8.56 -22.53,16.94 -33.92,25.16l111.75 142.14c2.34,2.97 1.83,7.27 -1.14,9.61 -2.96,2.33 -7.26,1.82 -9.59,-1.14l-112.14 -142.64c-11.51,8.17 -23.12,16.15 -34.8,23.98l106.67 145.93c2.22,3.04 1.56,7.3 -1.48,9.53 -3.03,2.22 -7.3,1.56 -9.52,-1.48l-107.04 -146.44c-11.79,7.76 -23.67,15.34 -35.62,22.75l101.46 149.54c2.12,3.12 1.31,7.37 -1.81,9.49 -3.12,2.12 -7.37,1.3 -9.49,-1.82l-101.81 -150.06c-12.06,7.34 -24.19,14.49 -36.4,21.48l96.13 152.95c2.01,3.19 1.07,7.41 -2.12,9.42 -3.18,2.01 -7.4,1.06 -9.41,-2.12l-96.48 -153.52c-12.31,6.91 -24.69,13.63 -37.13,20.18l90.69 156.22c1.9,3.26 0.8,7.43 -2.46,9.33 -3.25,1.91 -7.43,0.8 -9.33,-2.45l-91.02 -156.79c-12.55,6.47 -25.16,12.74 -37.84,18.85l85.17 159.32c1.77,3.31 0.52,7.44 -2.8,9.22 -3.31,1.77 -7.44,0.52 -9.22,-2.8l-85.47 -159.86c-12.76,6.02 -25.58,11.85 -38.47,17.5l79.53 162.19c1.67,3.38 0.28,7.47 -3.1,9.15 -3.38,1.67 -7.48,0.28 -9.15,-3.1l-79.81 -162.79c-12.96,5.57 -25.98,10.94 -39.05,16.14l73.8 164.89c1.54,3.44 0,7.49 -3.44,9.04 -3.44,1.54 -7.49,0 -9.04,-3.44l-74.06 -165.49c-13.15,5.1 -26.35,10.02 -39.61,14.75l67.99 167.41c1.42,3.48 -0.26,7.46 -3.74,8.88 -3.49,1.42 -7.47,-0.26 -8.89,-3.75l-68.22 -167.99c-13.32,4.63 -26.69,9.09 -40.1,13.36l62.07 169.69c1.3,3.54 -0.5,7.46 -4.04,8.77 -3.54,1.3 -7.47,-0.51 -8.77,-4.05l-62.31 -170.33c-13.47,4.16 -26.98,8.14 -40.54,11.93l56.1 171.81c1.19,3.57 -0.76,7.44 -4.34,8.61 -3.58,1.18 -7.44,-0.76 -8.62,-4.34l-56.31 -172.44c-13.61,3.68 -27.26,7.18 -40.93,10.5l50.06 173.7c1.05,3.62 -1.03,7.41 -4.65,8.46 -3.62,1.06 -7.41,-1.02 -8.47,-4.64l-50.24 -174.36c-13.73,3.21 -27.49,6.23 -41.28,9.07l43.95 175.39c0.92,3.65 -1.3,7.36 -4.95,8.28 -3.65,0.92 -7.36,-1.3 -8.28,-4.95l-44.11 -176.03c-13.82,2.72 -27.69,5.26 -41.57,7.61l37.78 176.88c0.79,3.68 -1.57,7.31 -5.25,8.09 -3.68,0.78 -7.31,-1.57 -8.09,-5.25l-37.91 -177.49c-13.92,2.23 -27.86,4.29 -41.82,6.15l31.57 178.12c0.65,3.71 -1.82,7.24 -5.53,7.9 -3.7,0.66 -7.24,-1.81 -7.89,-5.51l-31.68 -178.75c-13.99,1.75 -27.99,3.31 -42.02,4.69l25.3 179.13c0.54,3.73 -2.05,7.18 -5.78,7.71 -3.72,0.53 -7.17,-2.06 -7.71,-5.78l-25.39 -179.78c-14.04,1.26 -28.08,2.33 -42.14,3.22l19.01 179.91c0.4,3.75 -2.31,7.12 -6.05,7.52 -3.75,0.41 -7.12,-2.3 -7.52,-6.04l-19.08 -180.58c-14.07,0.76 -28.14,1.34 -42.22,1.74l12.69 180.48c0.27,3.76 -2.56,7.03 -6.31,7.3 -3.76,0.28 -7.03,-2.55 -7.3,-6.31l-12.74 -181.14c-10.48,0.21 -20.96,0.31 -31.44,0.31 -3.61,0 -7.21,-0.03 -10.81,-0.06l6.36 180.85c0.13,3.77 -2.81,6.93 -6.58,7.06 -3.76,0.14 -6.93,-2.8 -7.06,-6.57l-6.39 -181.49c-14.07,-0.22 -28.14,-0.63 -42.21,-1.22l0.01 180.98c0,3.77 -3.06,6.84 -6.84,6.84 -3.78,0 -6.84,-3.07 -6.84,-6.84l-0.02 -181.59c-14.06,-0.7 -28.11,-1.61 -42.15,-2.69l-6.33 180.85c-0.13,3.77 -3.3,6.71 -7.06,6.58 -3.77,-0.14 -6.71,-3.3 -6.58,-7.07l6.35 -181.45c-14.03,-1.2 -28.05,-2.6 -42.05,-4.17l-12.66 180.52c-0.27,3.75 -3.54,6.58 -7.29,6.31 -3.76,-0.27 -6.59,-3.54 -6.32,-7.29l12.71 -181.11c-13.98,-1.68 -27.93,-3.56 -41.87,-5.62l-18.98 179.91c-0.39,3.76 -3.76,6.49 -7.52,6.09 -3.75,-0.4 -6.48,-3.76 -6.08,-7.52l19.04 -180.53c-13.91,-2.17 -27.79,-4.54 -41.65,-7.08l-25.27 179.12c-0.53,3.72 -3.98,6.31 -7.71,5.78 -3.72,-0.53 -6.31,-3.99 -5.78,-7.71l25.35 -179.71c-13.83,-2.65 -27.63,-5.5 -41.41,-8.52l-31.52 178.07c-0.66,3.7 -4.2,6.17 -7.9,5.51 -3.7,-0.65 -6.17,-4.19 -5.52,-7.89l31.63 -178.67c-13.73,-3.14 -27.42,-6.47 -41.08,-9.98l-37.73 176.81c-0.78,3.67 -4.4,6.03 -8.09,5.25 -3.68,-0.79 -6.03,-4.41 -5.25,-8.09l37.87 -177.41c-13.61,-3.62 -27.18,-7.43 -40.71,-11.42l-43.89 175.34c-0.92,3.65 -4.63,5.87 -8.28,4.95 -3.66,-0.92 -5.87,-4.63 -4.95,-8.28l44.04 -175.92c-13.46,-4.09 -26.88,-8.37 -40.26,-12.83l-50.02 173.67c-1.05,3.62 -4.84,5.7 -8.46,4.64 -3.62,-1.05 -5.71,-4.84 -4.65,-8.46l50.18 -174.22c-13.32,-4.56 -26.58,-9.3 -39.79,-14.23l-56.06 171.77c-1.18,3.57 -5.04,5.52 -8.62,4.34 -3.58,-1.18 -5.52,-5.04 -4.34,-8.62l56.23 -172.31c-13.14,-5.03 -26.23,-10.24 -39.26,-15.63l-62.03 169.67c-1.31,3.53 -5.24,5.34 -8.77,4.04 -3.54,-1.3 -5.35,-5.24 -4.05,-8.77l62.24 -170.22c-12.96,-5.48 -25.86,-11.16 -38.7,-17l-67.93 167.36c-1.42,3.48 -5.4,5.16 -8.88,3.74 -3.49,-1.42 -5.17,-5.4 -3.75,-8.88l68.16 -167.93c-12.75,-5.93 -25.44,-12.05 -38.07,-18.35l-73.75 164.86c-1.54,3.45 -5.59,4.99 -9.03,3.44 -3.44,-1.54 -4.99,-5.59 -3.44,-9.03l74.01 -165.43c-12.54,-6.39 -24.99,-12.95 -37.39,-19.69l-79.5 162.2c-1.67,3.38 -5.76,4.78 -9.14,3.11 -3.38,-1.67 -4.77,-5.77 -3.1,-9.15l79.76 -162.73c-12.31,-6.83 -24.53,-13.83 -36.69,-21l-85.13 159.31c-1.78,3.32 -5.91,4.58 -9.23,2.8 -3.32,-1.77 -4.57,-5.9 -2.79,-9.22l85.43 -159.88c-12.05,-7.25 -24.03,-14.68 -35.92,-22.28l-90.7 156.27c-1.9,3.26 -6.08,4.36 -9.33,2.46 -3.26,-1.9 -4.36,-6.08 -2.46,-9.33l91 -156.81c-11.78,-7.68 -23.48,-15.52 -35.11,-23.53l-96.14 153.05c-2.02,3.18 -6.23,4.13 -9.42,2.12 -3.18,-2.02 -4.13,-6.23 -2.11,-9.42l96.46 -153.55c-11.5,-8.08 -22.92,-16.34 -34.25,-24.76l-101.47 149.62c-2.12,3.12 -6.37,3.93 -9.49,1.82 -3.12,-2.12 -3.93,-6.37 -1.82,-9.49l101.84 -150.15c-11.22,-8.48 -22.33,-17.13 -33.37,-25.94l-106.69 146.03c-2.23,3.03 -6.49,3.69 -9.53,1.47 -3.03,-2.23 -3.7,-6.49 -1.47,-9.53l107.06 -146.53c-10.9,-8.86 -21.71,-17.89 -32.43,-27.08l-111.79 142.24c-2.33,2.96 -6.63,3.47 -9.6,1.13 -2.96,-2.34 -3.47,-6.64 -1.13,-9.6l112.17 -142.73c-10.57,-9.23 -21.06,-18.62 -31.45,-28.18l-116.74 138.27c-2.44,2.88 -6.75,3.24 -9.63,0.8 -2.88,-2.45 -3.24,-6.76 -0.8,-9.64l117.13 -138.74c-11.39,-10.67 -22.68,-21.53 -33.84,-32.6l-128.61 128.62c-2.67,2.67 -7.01,2.67 -9.68,0 -2.67,-2.67 -2.67,-7.01 0,-9.68l128.62 -128.61c-11.96,-12.06 -23.69,-24.27 -35.18,-36.61z"/>
    <path class="fil0" d="M1043.51 773.23c-16.23,16.34 -31.84,33.01 -46.9,50.44 -1.82,2.05 -2.17,5 -1.01,7.46 2.22,4.42 8.05,5.23 11.33,1.52 16.22,-18.76 33.07,-36.69 50.63,-54.03l-9.69 -9.69 -4.36 4.3zm828.3 819.64c-16.32,16.42 -31.65,33.27 -46.36,51.15 -5.55,7.13 4.53,15.54 10.55,8.72 14.25,-17.32 29.46,-34.16 45.46,-50.22l-9.65 -9.65zm954.93 1002.42c5.99,-5.29 -0.82,-15.32 -8.28,-10.84 -0.32,0.21 -0.59,0.42 -0.9,0.69 -16.67,15.18 -34.17,29.56 -52.28,42.99 -4.92,3.83 -2.89,11.43 2.98,12.27 1.62,0.39 3.9,-0.3 5.12,-1.25 18.43,-13.55 36.45,-28.46 53.36,-43.86zm-110.82 82.2c2.71,-1.63 4.05,-4.94 3.03,-7.99 -1.38,-4.14 -6.21,-6.07 -9.99,-3.79 -19.4,11.55 -39.35,22.19 -59.81,31.73 -6.85,2.93 -4.29,14.15 4.03,12.96 0.66,-0.12 1.12,-0.29 1.72,-0.55 20.9,-9.76 41.21,-20.57 61.02,-32.36zm-124.95 58.45c8.23,-3 4.34,-15.36 -4.14,-13.04 -22.13,7.07 -42.58,13.81 -65.3,19.28 -8.85,2.42 -5.57,15.22 3.17,13.32 22.31,-5.38 44.61,-11.93 66.27,-19.56zm-134.11 32.41c7.43,-0.97 8.25,-12.06 -0.02,-13.56 -0.68,-0.06 -1.17,-0.08 -1.85,0.01 -22.36,3.11 -44.88,5.05 -67.43,5.94 -8.49,0.36 -8.89,12.87 -0.26,13.66l0.75 0.01c22.98,-0.87 46.03,-2.89 68.81,-6.06zm-137.89 5.27c8.93,0.39 9.87,-12.49 1.29,-13.61 -23.19,-2.17 -44.55,-3.79 -67.71,-7.51 -7.92,-1.45 -11.53,10.48 -3.06,13.31l0.86 0.19c22.81,3.66 45.56,6.19 68.62,7.62zm-136.19 -22.03c8.07,2.21 12.28,-9.55 4.43,-12.91l-0.86 -0.3c-21.92,-5.84 -43.25,-12.72 -64.5,-20.65 -8.11,-2.95 -13.19,8.66 -5.36,12.58 19.75,8.38 45.43,15.72 66.29,21.28zm-129.13 -48.62c1.53,0.76 3.32,0.94 4.99,0.45 5.96,-1.79 6.69,-9.91 1.15,-12.68 -20.25,-10.1 -39.9,-21.06 -59.06,-33.1 -7.69,-4.62 -14.89,6.38 -7.32,11.56 19.5,12.29 39.61,23.48 60.24,33.77zm-116.81 -73.41c6.82,5.3 15.54,-4.52 8.51,-10.72 -17.08,-13.29 -36.1,-28.95 -51.37,-44.22 -5.53,-5.53 -15.15,1.66 -10.31,8.91 0.27,0.35 0.49,0.62 0.82,0.95 17.06,15.9 33.93,30.73 52.35,45.08zm-99.99 -95.05c5.88,6.66 16.01,-1.71 10.53,-8.75 -14.77,-17.6 -28.58,-34.69 -41.79,-53.54 -0.78,-1.14 -1.73,-1.81 -2.92,-2.38 -6.49,-2.59 -12.15,4.59 -8.3,10.2 13.15,18.81 27.47,37.11 42.48,54.47zm-79.32 -112.9c4.63,7.72 16.05,1.53 11.98,-6.62 -8.25,-13.75 -16.23,-29.82 -23.34,-45.29 9.42,-0.4 18.83,-0.94 28.24,-1.66 7.57,-0.33 9.04,-12.04 0.49,-13.59 -0.52,-0.08 -0.95,-0.08 -1.47,-0.06 -11.09,0.84 -22.19,1.45 -33.29,1.86l-0.84 -1.91c-2.89,-6.75 -12.82,-4.58 -13.11,2.32 -6.87,0.15 -13.75,0.23 -20.63,0.25 -2.09,0 -4.11,0.97 -5.4,2.65 -3.45,4.52 -0.29,11.04 5.4,11.04 8.63,-0.03 17.25,-0.15 25.85,-0.38 8,17.48 16.68,34.62 26.12,51.39zm-55.21 -126.45c0.8,2.39 2.75,4.2 5.22,4.65 5.06,1.01 9.44,-3.93 7.82,-8.78 -6.89,-21.55 -12.75,-43.29 -17.5,-65.42 -1.8,-8.32 -14.28,-6.46 -13.5,2.11l0.12 0.73c4.85,22.59 10.8,44.71 17.84,66.71zm-28.96 -134.89c0.96,7.39 10.99,8.35 13.34,1.28 0.23,-0.95 0.4,-1.72 0.26,-2.75 -2.51,-22.53 -3.89,-44.93 -4.22,-67.6 -0.39,-9.05 -13.3,-8.8 -13.68,-0.15 -0.14,22.48 1.81,46.87 4.3,69.22zm-1.76 -137.94c-0.65,7.17 9,10.49 12.84,3.86 0.43,-0.92 0.69,-1.56 0.79,-2.64 1.97,-22.41 4.95,-44.97 9.19,-67.06 1.44,-7.96 -9.72,-11.66 -13.12,-3.74 -0.12,0.38 -0.24,0.72 -0.32,1.13 -4.29,22.62 -7.36,45.51 -9.38,68.45zm25.51 -135.58c-2.38,8.7 10.27,12.45 13.08,4.01 6.64,-21.91 13.74,-42.8 22.33,-64.03 3.07,-7.17 -7.08,-13.61 -12.18,-6.15 -8.65,17.24 -17.64,47.15 -23.23,66.17zm51.94 -127.84c-4,8.01 7.37,14.3 12.01,6.56 10.72,-20.09 22.09,-39.33 34.68,-58.31 4.77,-6.97 -5.48,-15.19 -11.28,-7.75 -12.8,18.83 -24.74,39.38 -35.41,59.5zm606.56 317.76c-13.06,13.44 -25.72,27.17 -38.01,41.38 -1.75,1.98 -2.14,4.79 -1.13,7.19 -4,3.54 -8.03,7.03 -12.06,10.44 -6.71,5.92 1.65,16.05 8.75,10.52 17.43,-14.74 34.58,-30.7 50.77,-46.8 3.55,-3.55 2.13,-8.35 -1.05,-10.56l2.41 -2.49 -9.68 -9.68zm-82.71 84.84c-17.93,13.98 -36.12,27.18 -54.98,39.89 -7.13,4.88 -0.59,16.12 7.54,11.42 13.52,-9.25 26.64,-18.5 39.62,-28.16 -20.9,22.55 42.19,-37.06 7.82,-23.15zm-82.21 73.52c2.76,-1.66 4.05,-5.26 2.84,-8.27 -1.6,-4.02 -6.23,-5.66 -9.95,-3.43 -18.69,11.84 -39.57,22.98 -59.28,33.09 -2.36,1.18 -3.86,3.74 -3.73,6.38 0.24,5 5.46,8.06 9.94,5.82 20.01,-10.27 41.2,-21.58 60.18,-33.59zm-97.45 51.57c2.68,-1.15 4.41,-4.18 3.99,-7.1 -0.6,-4.59 -5.33,-7.21 -9.59,-5.38 -20.68,9.36 -41.5,17.97 -62.79,25.84 -3.08,1.12 -5,4.34 -4.4,7.63 0.75,4.14 5.05,6.69 9.07,5.23 21.56,-7.87 42.82,-16.75 63.72,-26.22zm-102.81 39.65c2.4,-0.8 4.21,-2.75 4.66,-5.23 1.01,-5.05 -3.93,-9.43 -8.78,-7.81 -21.61,6.89 -43.36,12.92 -65.41,18.24 -8.86,2.42 -5.57,15.21 3.17,13.31 22.35,-5.37 44.46,-11.52 66.36,-18.51zm-106.81 27.27c8,-1.46 7.16,-13.57 -1.39,-13.57 -0.39,0.01 -0.74,0.05 -1.12,0.11 -22.31,4.27 -44.56,7.77 -67.11,10.45 -8.41,1.09 -8.03,13.62 1.16,13.62 22.08,-1.95 46.61,-6.44 68.46,-10.61zm-219.42 16.18c8.41,0.37 10.01,-12.03 1.39,-13.59l-0.74 -0.08c-22.63,-1 -45.19,-2.78 -67.69,-5.43 -8.01,-1.05 -11.19,11.05 -2.24,13.49 21.19,3.45 47.65,4.65 69.28,5.61zm-109.6 -11.23c7.91,1.44 11.52,-10.48 3.04,-13.31 -22.15,-5.03 -44.81,-7.99 -67.39,-13.51 -7.75,-2.11 -12.43,9.69 -3.92,13.09 19.99,5.94 47.4,10.38 68.27,13.73zm-107.58 -24.01c3.43,0.93 6.83,-0.72 8.21,-3.93 1.6,-3.74 -0.55,-8.16 -4.41,-9.22 -21.78,-6.23 -43.28,-13.25 -64.55,-21.06 -7.54,-2.75 -12.97,7.57 -6.03,12.2 0.42,0.24 0.8,0.46 1.28,0.63 21.62,7.91 43.37,15.04 65.5,21.38zm-103.97 -36.51c7.53,3.23 13.67,-7.66 5.93,-12.31 -20.71,-9.91 -41.45,-18.34 -62.24,-28.85 -1.51,-0.76 -3.31,-0.99 -4.98,-0.49 -5.92,1.62 -6.76,9.92 -1.23,12.68 20.51,10.37 41.3,20.14 62.52,28.97zm-98.97 -48.57c6.73,4.04 14.36,-5.38 7.74,-11.23l-0.93 -0.64c-19.78,-11.29 -38.84,-23.06 -57.81,-35.66 -6.98,-4.77 -15.2,5.48 -7.76,11.27 18.93,12.88 38.88,24.91 58.76,36.26zm-92.5 -59.94c1.01,0.78 2.27,1.22 3.57,1.34 6.93,0.32 10.03,-8.1 4.61,-12.31 -18.28,-13.53 -35.9,-27.48 -53.2,-42.24 -5.95,-5.24 -15.01,2.66 -9.79,9.48 0.3,0.34 0.53,0.6 0.88,0.9 17.52,14.97 35.41,29.13 53.93,42.83zm-84.76 -70.38c6.79,5.99 15.78,-3.56 9.36,-9.98 -16.25,-15.19 -33.01,-31.59 -47.9,-48.1 -5.3,-6.01 -15.65,1.02 -10.54,8.7 13.3,16.06 33.62,34.93 49.08,49.38zm-76.03 -79.75c5.92,6.71 16.05,-1.65 10.52,-8.75 -14.67,-17.34 -28.67,-35.11 -42.05,-53.46 -5.6,-7.19 -16.17,0.6 -11.08,8.04 13.5,18.49 27.73,36.77 42.61,54.17zm-66.22 -88.12c4.99,7.29 16.05,0.44 11.54,-7.35 -12.44,-19.27 -24.27,-38.1 -35.51,-58.12 -4.62,-7.71 -16.04,-1.52 -11.97,6.62 11.99,19.99 22.97,39.33 35.94,58.85zm-55.34 -95.31c3.56,7.13 14.68,3.35 12.74,-4.8 -0.17,-0.49 -0.27,-0.85 -0.51,-1.33 -10.22,-20.21 -19.59,-40.83 -28.28,-61.73 -0.92,-2.14 -2.78,-3.7 -5.04,-4.11 -5.3,-1.06 -9.72,4.4 -7.61,9.33 8.84,21.22 18.33,42.12 28.7,62.64zm-43.68 -101.22c2.7,7.42 14.01,5.29 13.23,-3.2 -0.09,-0.5 -0.16,-0.91 -0.33,-1.39 -7.68,-21.31 -14.7,-42.82 -20.79,-64.64 -0.92,-3.37 -4.31,-5.55 -7.82,-4.91 -3.92,0.71 -6.44,4.63 -5.37,8.55 6.21,22.15 13.29,43.95 21.08,65.59zm-31.39 -105.62c1.59,7.31 12.75,7.1 13.5,-1.16 0,-0.74 -0.01,-1.2 -0.17,-1.92 -5.17,-22.09 -9.47,-44.24 -13.04,-66.64 -1.61,-8.91 -14.69,-6.88 -13.52,2.11 3.64,22.73 7.99,45.19 13.23,67.61zm-18.77 -108.61c0.96,7.39 10.99,8.35 13.34,1.28 0.23,-0.95 0.4,-1.72 0.26,-2.75 -2.5,-22.56 -4.24,-45.03 -5.14,-67.71 -0.37,-8.49 -12.88,-8.89 -13.66,-0.26l-0.02 0.75c0.89,22.98 2.69,45.83 5.22,68.69zm-5.93 -110.02c0,8.78 13.28,9.4 13.68,0.08 0.08,-22.51 0.99,-45.36 2.81,-67.81 0.68,-7.48 -10.08,-10.81 -13.32,-2.71 -0.15,0.56 -0.26,0.97 -0.32,1.57 -1.88,22.74 -2.77,46.05 -2.85,68.87zm6.98 -109.99c-1.08,8.28 11.15,10.85 13.4,2.6l0.17 -0.89c2.78,-22.53 6.36,-44.79 10.73,-67.06 0.95,-5.23 -3.88,-9.5 -8.92,-7.81 -2.27,0.83 -4.05,2.68 -4.5,5.13 -4.44,22.58 -8.07,45.18 -10.88,68.03zm19.81 -108.44c-2.03,7.44 8.88,12.46 12.9,4.4l0.36 -1.07c5.45,-22.02 11.53,-43.75 18.54,-65.33 2.63,-7.9 -8.82,-12.8 -12.66,-5.13l-0.34 0.85c-7.12,21.88 -13.28,43.96 -18.8,66.28zm32.41 -105.31c-2.94,8.11 8.66,13.19 12.58,5.35 8.99,-21.19 16.58,-42.03 26.33,-63.2 2.19,-5.1 -1.76,-10.42 -7.33,-9.63 -2.08,0.3 -4.22,1.87 -5.08,3.88 -9.6,20.9 -18.45,42.05 -26.5,63.6zm44.63 -100.76c-3.61,7.21 5.88,13.72 11.31,7.55 0.34,-0.43 0.6,-0.78 0.84,-1.26 10.34,-20.13 21.54,-39.83 33.35,-59.13 4.54,-7.57 -6.43,-14.81 -11.58,-7.29 -12.04,19.4 -23.49,39.81 -33.92,60.13zm56.26 -94.77c-4.56,6.67 4.51,14.66 10.64,8.53 0.26,-0.29 0.47,-0.54 0.68,-0.85 12.68,-18.75 26.08,-37 40.11,-54.77 2.15,-2.77 1.96,-6.61 -0.55,-9.12 -2.83,-2.83 -7.68,-2.6 -10.17,0.61 -14.23,18.04 -27.84,36.56 -40.71,55.6z"/>
    <path class="fil0" d="M3037.18 2758.24c-9.9,9.92 -19.28,20.2 -28.27,30.98 -7.4,8.75 3.34,21.69 13.64,15.07 0.8,-0.56 1.45,-1.13 2.1,-1.9 8.61,-10.33 17.56,-20.1 27.04,-29.64l-14.51 -14.51zm-2336.41 -616l1.33 -1.33c3.06,-3.06 3.85,-7.39 2.23,-11.34 -2.83,-6.62 -11.55,-8.37 -16.64,-3.27 -10.41,10.34 -20.33,21.12 -29.71,32.41 -8.16,10.33 5.92,23.04 15.4,13.57 9.13,-10.43 17.57,-20.17 27.39,-30.04zm34.57 -57.07c-9.91,7.82 -0.44,22.72 10.71,17.41 0.56,-0.29 1.04,-0.58 1.55,-0.95 10.68,-8.01 21.77,-15.53 33.15,-22.49 9.45,-5.85 4.29,-20.38 -6.75,-18.94 -1.44,0.26 -2.61,0.6 -3.9,1.39 -11.91,7.25 -23.61,15.21 -34.76,23.58zm90.66 -52.59c-10.82,4.91 -6.46,20.65 5.02,19.65 1.17,-0.16 1.94,-0.32 3.04,-0.78 12.31,-5.31 24.76,-10.03 37.49,-14.2 11.29,-3.92 8.26,-20.03 -3.18,-20.03 -1.2,0.06 -1.97,0.15 -3.11,0.5 -13.31,4.33 -26.41,9.3 -39.26,14.86zm100.32 -30.14c-11.26,1.88 -11.48,18.73 0.71,20.32 1,0.09 1.85,0.06 2.84,-0.1 13.16,-2.31 26.39,-4.06 39.71,-5.16 12.11,-1.01 12.91,-18.79 0.23,-20.45 -0.6,-0.05 -1.21,-0.07 -1.82,-0.02 -14.04,1.22 -27.79,2.97 -41.67,5.41zm104.6 -6.24c-5.27,-0.22 -9.57,3.11 -10.69,8.26 -1.09,6.27 3.13,11.7 9.46,12.22 13.4,0.75 26.63,2.14 39.91,4.09 10.45,1.74 16.45,-12.38 7.24,-18.67 -1.42,-0.9 -2.54,-1.35 -4.19,-1.63 -13.87,-2.04 -27.73,-3.49 -41.73,-4.27zm103.25 17.91c-11.37,-3.45 -18.72,12.35 -8.09,18.73 0.69,0.39 1.4,0.69 2.14,0.92 12.81,3.83 25.48,8.15 37.87,13.16 3.61,1.42 7.68,0.82 10.62,-1.78 5.73,-5.06 4.19,-14.34 -2.9,-17.24 -13.01,-5.23 -26.21,-9.77 -39.64,-13.79zm96.3 41.28c-10.8,-6.17 -21.45,8.65 -11.51,16.93 0.39,0.29 0.76,0.56 1.19,0.81 11.69,6.75 22.68,13.86 33.76,21.57 3.52,2.47 7.92,2.57 11.55,0.28 6.05,-3.83 6.25,-12.87 0.4,-16.96 -11.38,-8.11 -23.29,-15.64 -35.39,-22.63zm84.12 62.46c-3.79,-3.58 -9.63,-3.78 -13.65,-0.43 -4.69,3.91 -4.94,11.11 -0.49,15.31 9.76,9.21 19.07,18.75 27.96,28.79 3.45,3.88 9.2,4.62 13.5,1.68 5.04,-3.53 6.01,-10.62 1.9,-15.25 -9.33,-10.5 -19,-20.46 -29.22,-30.1zm67.58 80c-5.79,-8.89 -20.26,-4.14 -18.67,7.48 0.32,1.48 0.69,2.54 1.54,3.84 7.41,11.15 14.21,22.61 20.56,34.4 5.47,10.43 22.13,4.66 18.9,-7.74 -0.22,-0.69 -0.45,-1.27 -0.79,-1.93 -6.64,-12.34 -13.79,-24.37 -21.54,-36.05zm47.29 93.52c-3.5,-10.06 -18.89,-8.59 -19.88,2.86 -0.07,1.54 0.1,2.72 0.6,4.15 4.61,12.58 8.58,25.31 12.02,38.25 2.99,11.47 20.19,9.46 20.19,-2.72 -0.04,-0.91 -0.11,-1.63 -0.34,-2.5 -3.61,-13.56 -7.76,-26.86 -12.59,-40.04zm24.38 101.93c-1.38,-11.01 -16.64,-12.47 -20.03,-1.8 -0.38,1.38 -0.55,2.68 -0.37,4.12 1.55,13.36 2.53,26.57 2.91,40.01 0.51,12.43 18.26,13.68 20.41,1.27 0.08,-0.62 0.11,-1.12 0.11,-1.76 -0.41,-14.07 -1.41,-27.85 -3.03,-41.84zm0.3 104.72c1.36,-10.86 -13.66,-16.17 -19.29,-5.93 -0.61,1.23 -0.93,2.26 -1.1,3.6 -1.42,13.17 -3.63,26.59 -6.34,39.55 -0.97,4.65 1.32,9.35 5.64,11.4 5.94,2.84 13.09,-0.65 14.44,-7.13 2.85,-13.58 5.17,-27.7 6.65,-41.49zm-23.76 102.07c2.75,-7.93 -4.31,-15.6 -12.43,-13.38 -3.1,0.84 -5.8,3.31 -6.86,6.37 -4.51,12.59 -9.65,24.94 -15.31,37.05 -4.99,10.97 9.48,20.17 17.3,10.79 0.48,-0.63 0.93,-1.31 1.26,-2.04 5.94,-12.67 11.31,-25.61 16.04,-38.79zm-46.74 93.79c6.75,-10.37 -7.33,-21.93 -16.26,-12.45 -0.31,0.37 -0.6,0.73 -0.87,1.15 -7.3,11.13 -15.14,22.08 -23.47,32.47 -7.43,9.41 4.42,21.82 14.23,14.59 0.64,-0.5 1.26,-1.08 1.76,-1.72 8.73,-10.97 16.93,-22.31 24.61,-34.04zm-67.1 80.41c8.52,-8.05 -1.23,-22.09 -11.95,-16.48 -0.82,0.46 -1.52,0.96 -2.19,1.6 -9.42,9.16 -19.95,18.1 -30.27,26.25 -8.98,7.08 -1.39,21.79 10.22,17.57 0.9,-0.39 1.69,-0.83 2.45,-1.43 10.82,-8.54 21.86,-17.9 31.74,-27.51zm-83.75 62.95c9.82,-5.61 4.44,-21.45 -7.71,-18.81 -0.94,0.26 -1.74,0.58 -2.62,1.08 -11.54,6.76 -23.36,12.85 -35.47,18.52 -9.89,4.5 -6.91,19.6 4.49,19.6 1.47,-0.06 2.69,-0.32 4.04,-0.93 12.7,-5.91 25.17,-12.38 37.27,-19.46zm-37.27 19.46l-8.53 -18.67 8.53 18.67zm-58.79 22.4c4.64,-1.41 7.67,-5.87 7.26,-10.69 -0.55,-6.5 -6.99,-10.85 -13.2,-8.95 -13.16,3.59 -25.39,7.04 -38.82,9.8 -10.62,2.21 -11.08,17.13 -0.61,19.99 1.59,0.36 3,0.47 4.62,0.14 14.09,-2.84 26.96,-6.53 40.75,-10.29zm-103.14 18.52c12.06,-1 13.03,-17.78 1.41,-20.3 -0.95,-0.16 -1.66,-0.22 -2.64,-0.18 -13.12,0.82 -26.91,1.16 -40.04,0.63 -11.24,-0.47 -15.21,15.58 -3.65,19.98 0.99,0.32 1.86,0.49 2.91,0.53 14.05,0.39 27.99,0.22 42.01,-0.66zm-104.63 -5.63c12.35,2.06 17.07,-15.65 4.94,-19.87 -0.45,-0.15 -0.92,-0.27 -1.39,-0.35 -13.23,-2.26 -26.23,-5.12 -39.19,-8.58 -5.22,-1.36 -10.49,1.37 -12.35,6.48 -1.94,5.59 1.19,11.82 7.01,13.34 13.57,3.6 27.14,6.61 40.98,8.98zm-100.5 -29.53c10.4,4.26 19.02,-8.49 11.46,-16.52 -1.09,-1.09 -1.97,-1.71 -3.39,-2.35 -12.34,-5.23 -24.31,-11.08 -36.11,-17.41 -2.31,-1.21 -4.45,-1.48 -6.98,-1.03 -9.38,2.14 -11.18,14.28 -2.79,19.08 12.35,6.63 24.9,12.76 37.81,18.23zm-90.97 -52.05c9.24,6.81 21.19,-4.4 14.47,-14.22 -0.69,-0.93 -1.31,-1.52 -2.21,-2.24 -10.64,-7.86 -21.28,-16.4 -31.09,-25.29 -9.03,-8.03 -22.19,3.41 -15.26,13.54 0.47,0.63 0.93,1.18 1.51,1.7 10.57,9.33 21.24,18.12 32.58,26.51zm-76.48 -71.54c8.29,9.33 22.71,-0.86 16.7,-11.79 -0.32,-0.54 -0.65,-1.01 -1.05,-1.48 -8.65,-10.11 -16.85,-20.83 -24.49,-31.71 -6.83,-9.77 -22.15,-1.87 -18.04,9.44 0.31,0.82 0.71,1.58 1.2,2.29 8.01,11.41 16.61,22.66 25.68,33.25zm-58.1 -87.25c5.09,10.18 20.85,5.61 19.32,-6.09 -0.19,-1.14 -0.45,-2.06 -0.98,-3.12 -6.05,-11.94 -11.57,-24.09 -16.49,-36.54 -1.53,-3.93 -5.34,-6.53 -9.53,-6.53 -7.25,0 -12.21,7.28 -9.58,14 5.18,13.06 10.91,25.74 17.26,38.28zm-36.27 -98.29c3,11.98 20.76,9.66 20.23,-3.08 -0.05,-0.56 -0.12,-1.13 -0.26,-1.67 -3.15,-13.08 -5.61,-26.08 -7.6,-39.39 -2.07,-12.42 -19.87,-11.22 -20.41,1.18 0,0.63 0.02,1.13 0.1,1.76 2.07,13.91 4.66,27.52 7.94,41.2zm-12.63 -104.02c0,11.78 16.99,14.35 20.22,2.5 0.19,-0.87 0.3,-1.59 0.3,-2.5 -0.03,-13.44 0.49,-26.7 1.65,-40.09 1,-12.06 -16.25,-15.83 -20.09,-3.75 -0.16,0.64 -0.3,1.25 -0.35,1.92 -1.23,13.99 -1.76,27.88 -1.73,41.92zm11.55 -104.09c-2.51,12.03 13.96,17.86 19.44,6.36 0.24,-0.59 0.41,-1.12 0.56,-1.73 2.94,-12.93 6.6,-25.99 10.79,-38.57 1.36,-3.88 0.08,-8.48 -3.12,-11.12 -5.58,-4.65 -13.94,-2.28 -16.33,4.59 -4.42,13.15 -8.26,26.95 -11.34,40.47zm35.27 -98.72c-5.47,10.95 9.62,20.74 17.38,10.77 0.36,-0.5 0.68,-1 0.96,-1.56 5.96,-11.94 12.39,-23.71 19.46,-35.04 6.27,-10.15 -7,-21.14 -15.83,-12.83 -0.61,0.61 -1.13,1.21 -1.59,1.96 -7.39,11.91 -14.13,24.16 -20.38,36.7zm3066.64 1158.3c7.84,-7.22 0.24,-20.7 -10.4,-17.15 -1.5,0.53 -2.58,1.2 -3.75,2.27 -9.56,9.19 -19.85,18.03 -30.26,26.25 -8.9,6.92 -1.52,21.51 9.8,17.73 1.12,-0.45 1.92,-0.85 2.87,-1.59 10.91,-8.6 21.73,-17.88 31.74,-27.51zm-83.75 62.96c10.13,-5.95 3.91,-21.73 -7.83,-18.79 -0.91,0.27 -1.7,0.57 -2.5,1.04 -11.39,6.77 -23.47,12.92 -35.47,18.53 -4.62,2.23 -7.13,7.31 -5.57,12.31 1.88,6 8.32,8.88 14.09,6.36 12.29,-5.44 25.71,-12.58 37.28,-19.45zm-96.06 41.85c10.59,-3.31 9.25,-18.64 -1.83,-20.03 -1.64,-0.1 -2.52,-0.05 -4.12,0.38 -12.08,4.03 -26.31,7.25 -38.82,9.81 -2.48,0.53 -4.37,1.7 -5.98,3.63 -5.9,7.67 0.47,18.18 10,16.5 13.09,-2.66 28.12,-6.08 40.75,-10.29zm-103.14 18.53c11.88,-0.7 13.26,-18.09 1.1,-20.37 -0.8,-0.12 -1.52,-0.17 -2.33,-0.12 -13.21,0.83 -26.81,1.1 -40.05,0.63 -12.22,-0.35 -14.81,17.22 -2.67,20.26 0.7,0.13 1.23,0.21 1.94,0.25 13.9,0.48 28.12,0.22 42.01,-0.65zm-104.63 -5.63c8.93,1.57 15.38,-8.48 10.2,-15.96 -1.75,-2.3 -3.76,-3.75 -6.67,-4.26 -13.22,-2.28 -26.21,-5.13 -39.17,-8.59 -11.34,-3.1 -18.42,12.73 -7.52,18.96 0.71,0.37 1.39,0.64 2.17,0.86 13.59,3.61 27.14,6.6 40.99,8.99zm-100.51 -29.54c8.41,3.53 16.84,-4.63 13.59,-13.19 -1.21,-2.68 -2.78,-4.48 -5.52,-5.68 -12.36,-5.28 -24.26,-11.05 -36.11,-17.41 -9.32,-4.97 -19.18,5.59 -13.51,14.58 1.03,1.49 2.12,2.6 3.74,3.46 12.4,6.66 24.86,12.71 37.81,18.24zm-90.96 -52.05c9.96,7.13 21.76,-5.57 13.83,-15.01 -0.52,-0.57 -0.97,-0.98 -1.58,-1.45 -10.81,-8.01 -21,-16.37 -31.07,-25.28 -8.38,-7.7 -21.82,2.42 -15.59,13.05 0.52,0.82 1.1,1.51 1.82,2.18 10.45,9.35 21.33,18.17 32.59,26.51zm-76.49 -71.54c7.07,8.35 20.79,1.2 17.65,-9.64 -0.48,-1.42 -1.04,-2.5 -1.99,-3.63 -8.65,-10.02 -16.88,-20.88 -24.49,-31.71 -7.09,-9.93 -22.68,-1.62 -17.75,10.15 0.26,0.54 0.56,1.09 0.91,1.58 7.94,11.34 16.62,22.77 25.67,33.25zm-58.1 -87.26c4.7,9.71 20.13,6.24 19.39,-5.52 -0.12,-1.33 -0.47,-2.47 -1.05,-3.68 -6.03,-11.93 -11.58,-24.1 -16.48,-36.55 -3.87,-10.33 -20.17,-7.94 -19.8,4.48 0.1,1.1 0.29,1.95 0.69,3 5.18,13.06 10.91,25.74 17.25,38.27zm-36.26 -98.28c0.92,3.89 4.11,6.96 8.04,7.7 7.33,1.38 13.64,-5.19 11.93,-12.45 -3.15,-13.06 -5.64,-26.11 -7.6,-39.39 -1.86,-12.28 -20.03,-11.41 -20.42,1.38 0.02,0.56 0.04,1 0.11,1.56 2.04,13.89 4.65,27.55 7.94,41.2zm-12.63 -104.02c0,11.36 16.04,14.41 20.01,3.23 0.33,-1.15 0.52,-2.04 0.52,-3.23 -0.04,-13.42 0.46,-26.72 1.64,-40.08 0.96,-11.29 -14.58,-15.86 -19.67,-4.95 -0.44,1.12 -0.64,1.92 -0.78,3.11 -1.2,13.99 -1.76,27.87 -1.72,41.92zm11.55 -104.09c-2.08,8.83 7.73,15.86 15.38,11.05 2.28,-1.27 4.02,-3.89 4.62,-6.42 3,-12.98 6.57,-25.92 10.79,-38.56 1.38,-4.16 0.01,-8.73 -3.46,-11.4 -5.57,-4.29 -13.77,-1.82 -16,4.86 -4.39,13.35 -8.16,26.78 -11.33,40.47zm52.5 -87.76c0.41,-0.54 0.82,-1.14 1.11,-1.75 5.94,-11.95 12.4,-23.7 19.45,-35.04 6.21,-10.35 -6.97,-20.95 -15.73,-12.92 -0.7,0.7 -1.14,1.22 -1.68,2.04 -4.4,7.13 -34.02,84.42 -3.15,47.67z"/>
    <path class="fil0" d="M2356.41 2085.82c-0.65,-2.44 0.11,-4.92 1.77,-6.58l14.46 14.46 240.43 901.32c0.97,3.64 -1.2,7.39 -4.84,8.35 -3.64,0.97 -7.38,-1.19 -8.35,-4.83l-243.47 -912.72z"/>
    <path class="fil0" d="M1698.98 2753.23c-2.66,2.66 -6.97,2.66 -9.63,0 -2.66,-2.66 -2.66,-6.97 0,-9.63l509.69 -507.48c-81.44,-87.7 -79.51,-224.84 5.83,-310.18l0 0 3.88 3.86 -0.01 0.01c-83.2,83.2 -85.13,216.88 -5.81,302.45l154.47 -153.8 9.64 9.64 -154.56 153.87c42.1,40.17 96.32,60.25 150.52,60.25 55.83,0 111.66,-21.3 154.26,-63.89l0 -0.01 3.87 3.87 0 0c-43.66,43.67 -100.9,65.5 -158.13,65.5 -55.61,0 -111.23,-20.62 -154.39,-61.85l-509.63 507.39z"/>
    <path class="fil0" d="M1683.8 1414.49c-2.67,-2.66 -2.67,-6.97 0,-9.63l669.57 669.57 1.28 1.27 13.17 13.18 0.01 0.01 3.54 3.53 -169.72 634.83c34.21,10.18 64.8,28.75 89.39,53.34 38.38,38.38 62.12,91.41 62.12,149.97 0,58.56 -23.74,111.59 -62.12,149.97 -38.38,38.38 -91.41,62.12 -149.97,62.12 -16.85,0 -33.24,-1.97 -48.96,-5.68l-316.48 1183.76 -19.78 -5.27 316.58 -1184.17c-30.96,-10.58 -58.69,-28.12 -81.33,-50.76 -38.38,-38.38 -62.12,-91.41 -62.12,-149.97 0,-58.56 23.74,-111.59 62.12,-149.97 38.38,-38.38 91.41,-62.12 149.97,-62.12 13.92,0 27.52,1.34 40.69,3.9l166.78 -623.84 -2327.59 622.28 -5.27 -19.79 2314.26 -618.71 -881.41 -235.12c-3.64,-0.97 -5.81,-4.71 -4.84,-8.35 0.97,-3.64 4.71,-5.81 8.35,-4.84l888.18 236.92 -656.42 -656.43zm507.24 1352.44l-88.32 330.35c12.33,2.83 25.17,4.32 38.35,4.32 47.23,0 90,-19.15 120.95,-50.09 30.94,-30.95 50.09,-73.72 50.09,-120.95 0,-47.23 -19.15,-90 -50.09,-120.94 -19.56,-19.56 -43.84,-34.41 -70.98,-42.69zm-107.97 324.58l88.05 -329.36c-9.76,-1.73 -19.8,-2.63 -30.05,-2.63 -47.23,0 -90,19.14 -120.95,50.1 -30.94,30.94 -50.09,73.71 -50.09,120.94 0,47.23 19.15,90 50.09,120.95 17.61,17.6 39.05,31.38 62.95,40z"/>
    <path class="fil0" d="M2358.76 2086.74c-2.19,-2.19 -2.58,-5.5 -1.16,-8.08l683.63 683.63c-2.58,1.42 -5.89,1.03 -8.08,-1.16l-674.39 -674.39z"/>
    <path class="fil0" d="M1717.96 4070.52l212.73 56.75 -1.74 6.6 -212.72 -56.75 1.73 -6.6zm-48.92 125.62l241.33 64.37 -3.47 13.21 -241.33 -64.38 3.47 -13.2zm-40 -85.77l358.82 95.72 -3.47 13.2 -358.83 -95.72 3.48 -13.2z"/>
    <path class="fil0" d="M816.37 536.82c-272.62,239.43 -471.37,546.46 -580.67,880.83 -158.8,485.81 -132.26,1032.2 117.23,1524.01l6.1 -3.09c-248.64,-490.13 -275.08,-1034.65 -116.82,-1518.79 109.11,-333.83 306.54,-639.33 578.99,-878.13l-4.83 -4.83z"/>
    <path class="fil0" d="M1017.64 2128.25c89.8,0 171.11,36.4 229.96,95.25 58.85,58.85 95.25,140.16 95.25,229.96 0,89.81 -36.4,171.11 -95.25,229.96 -58.85,58.85 -140.16,95.25 -229.96,95.25 -89.8,0 -171.11,-36.4 -229.96,-95.25 -58.85,-58.85 -95.25,-140.15 -95.25,-229.96 0,-89.8 36.4,-171.11 95.25,-229.96 58.85,-58.85 140.15,-95.25 229.96,-95.25zm225.12 100.09c-57.61,-57.61 -137.21,-93.25 -225.12,-93.25 -87.92,0 -167.51,35.64 -225.12,93.25 -57.62,57.61 -93.25,137.21 -93.25,225.12 0,87.91 35.63,167.51 93.25,225.12 57.61,57.61 137.21,93.25 225.12,93.25 87.91,0 167.51,-35.64 225.12,-93.25 57.61,-57.61 93.25,-137.21 93.25,-225.12 0,-87.91 -35.64,-167.51 -93.25,-225.12z"/>
    <path class="fil0" d="M1362.32 1083.38l-6.46 6.48 -6.4 6.52 -6.35 6.56 -9.58 10.06c-8.23,8.94 2.8,22.12 13.04,15.67 0.66,-0.47 1.27,-0.91 1.84,-1.53l9.49 -9.97 6.26 -6.45 6.31 -6.44 6.36 -6.4 -14.51 -14.5zm500.22 2967.03c6.31,-6.31 9.64,-14.46 9.99,-22.73 0.3,-6.85 -1.46,-13.78 -5.27,-19.78 -1.33,-2.08 -2.9,-4.05 -4.72,-5.87 -10.66,-10.66 -26.61,-12.81 -39.41,-6.45 -2.03,1 -3.98,2.23 -5.82,3.67 -1.09,0.85 -2.14,1.78 -3.14,2.78 -6.31,6.31 -9.64,14.47 -9.99,22.74 -0.29,6.85 1.47,13.78 5.28,19.78 1.32,2.08 2.89,4.05 4.71,5.86 13.36,13.36 35.02,13.36 48.37,0zm389.13 -690.53c0.24,-5.57 -1.19,-11.19 -4.29,-16.07 -1.08,-1.69 -2.35,-3.29 -3.83,-4.77 -8.66,-8.66 -21.62,-10.41 -32.02,-5.24 -1.65,0.81 -3.23,1.81 -4.73,2.98 -0.88,0.69 -1.74,1.45 -2.55,2.26 -5.13,5.13 -7.84,11.76 -8.12,18.47 -0.06,1.5 -0.01,3 0.17,4.49l-192.66 74.04 -130.51 -159.94c3.4,-4.57 5.23,-9.95 5.46,-15.39 0.24,-5.57 -1.19,-11.2 -4.29,-16.07 -1.08,-1.7 -2.35,-3.3 -3.83,-4.78 -8.66,-8.66 -21.62,-10.41 -32.02,-5.24 -1.65,0.82 -3.24,1.82 -4.73,2.98 -0.89,0.7 -1.74,1.45 -2.56,2.26 -5.12,5.13 -7.83,11.76 -8.11,18.48 -0.24,5.57 1.19,11.19 4.29,16.07 1.07,1.69 2.35,3.29 3.82,4.76 8.49,8.49 21.11,10.34 31.4,5.55l114.24 140.01c-0.5,-0.27 -1.03,-0.51 -1.61,-0.72 -13.13,-4.03 -26.24,-7.82 -39.34,-12 -10.19,-3.39 -18.39,9.73 -9.91,17.51 1.15,0.95 2.17,1.55 3.61,2.03l14.15 4.46c8.45,2.59 16.91,5.16 25.41,7.59 8.82,2.41 14.55,-5.84 12.77,-12.64l14.29 17.51c2,2.46 5.36,3.16 8.12,1.91l19.32 -7.43c-3.68,4.59 -3.51,12.24 3.35,15.8 0.65,0.31 1.37,0.58 2.08,0.74 13.4,3.23 26.84,6.3 40.34,9.14 11.89,2.52 17.83,-14.58 5.77,-19.64 -0.51,-0.18 -0.98,-0.33 -1.51,-0.44 -13.29,-2.8 -26.52,-5.82 -39.73,-9 -0.33,-0.07 -0.65,-0.14 -0.97,-0.18l168.24 -64.66c0.9,1.28 1.92,2.5 3.07,3.64 10.85,10.85 28.45,10.85 39.3,0 5.13,-5.12 7.83,-11.75 8.12,-18.47zm1526.37 139.23l0 0 14.52 14.51 0 0 -14.52 -14.51zm-1976.34 506.18c-6.53,-1.91 -13.06,-3.81 -19.56,-5.8l-5.98 19.64c6.59,1.99 13.19,3.93 19.8,5.87l5.74 -19.71zm-39.08 -11.81c-6.49,-2.04 -12.98,-4.11 -19.46,-6.21l-6.36 19.52c6.54,2.12 13.09,4.21 19.65,6.26l6.17 -19.57zm-38.85 -12.62c-6.45,-2.17 -12.88,-4.38 -19.32,-6.6l-6.76 19.38c6.5,2.26 13.01,4.48 19.53,6.67l6.55 -19.45zm-38.58 -13.41c-6.4,-2.3 -12.8,-4.64 -19.18,-7l-7.14 19.24c6.45,2.39 12.9,4.75 19.37,7.08l6.95 -19.32zm-38.29 -14.19c-6.36,-2.43 -12.7,-4.91 -19.03,-7.4l-7.54 19.1c6.4,2.51 12.81,5.01 19.23,7.46l7.34 -19.16zm-37.98 -14.98c-6.31,-2.56 -12.59,-5.16 -18.88,-7.78l-7.95 18.93c6.35,2.63 12.7,5.26 19.07,7.85l7.76 -19zm-37.67 -15.75c-6.26,-2.7 -12.5,-5.41 -18.72,-8.17l-8.33 18.76c6.29,2.77 12.59,5.52 18.9,8.25l8.15 -18.84zm-37.35 -16.53c-6.2,-2.83 -12.38,-5.67 -18.55,-8.55l-8.71 18.58c6.23,2.92 12.48,5.79 18.73,8.64l8.53 -18.67zm-37 -17.29c-6.14,-2.95 -12.26,-5.93 -18.37,-8.93l-9.09 18.4c6.18,3.03 12.36,6.05 18.56,9.02l8.9 -18.49zm-36.64 -18.05c-6.07,-3.08 -12.13,-6.17 -18.17,-9.31l-9.47 18.22c6.11,3.16 12.23,6.29 18.37,9.4l9.27 -18.31zm-36.25 -18.8c-6.02,-3.19 -12.01,-6.43 -17.99,-9.68l-9.83 18.02c6.04,3.29 12.09,6.56 18.17,9.78l9.65 -18.12zm-35.87 -19.54c-5.94,-3.31 -11.86,-6.67 -17.77,-10.05l-10.2 17.82c5.97,3.41 11.95,6.8 17.96,10.15l10.01 -17.92zm-35.45 -20.27c-5.87,-3.44 -11.72,-6.91 -17.56,-10.41l-10.57 17.6c5.91,3.53 11.82,7.04 17.75,10.52l10.38 -17.71zm-35.02 -21c-5.8,-3.56 -11.58,-7.15 -17.35,-10.77l-10.92 17.38c5.83,3.65 11.66,7.28 17.53,10.88l10.74 -17.49zm-34.59 -21.71c-5.73,-3.68 -11.43,-7.39 -17.12,-11.12l-11.28 17.15c5.75,3.77 11.51,7.51 17.3,11.23l11.1 -17.26zm-34.13 -22.42c-5.65,-3.8 -11.28,-7.61 -16.9,-11.47l-11.63 16.91c5.68,3.89 11.36,7.75 17.07,11.59l11.46 -17.03zm-33.67 -23.11c-5.57,-3.91 -11.13,-7.85 -16.65,-11.82l-11.98 16.67c5.59,4 11.2,7.98 16.83,11.94l11.8 -16.79zm-33.19 -23.8c-5.48,-4.03 -10.95,-8.07 -16.41,-12.15l-12.31 16.42c5.5,4.11 11.03,8.2 16.57,12.27l12.15 -16.54zm-32.69 -24.47l-16.16 -12.48 -12.66 16.15c5.43,4.23 10.87,8.44 16.33,12.62l12.49 -16.29zm-32.19 -25.13l-15.9 -12.81 -12.99 15.89 16.07 12.94 12.82 -16.02zm-31.68 -25.8c-5.23,-4.35 -10.44,-8.73 -15.63,-13.13l-13.29 15.65c5.25,4.44 10.51,8.87 15.8,13.26l13.12 -15.78zm-31.13 -26.42c-5.15,-4.45 -10.27,-8.94 -15.37,-13.44l-13.61 15.36c5.15,4.55 10.33,9.09 15.52,13.59l13.46 -15.51zm-30.6 -27.04c-5.05,-4.56 -10.07,-9.15 -15.09,-13.75l-13.93 15.07c5.06,4.66 10.15,9.29 15.25,13.9l13.77 -15.22zm-30.05 -27.66c-4.96,-4.67 -9.9,-9.36 -14.82,-14.07l-14.21 14.81c4.96,4.76 9.95,9.48 14.95,14.2l14.08 -14.94zm-29.5 -28.27c-4.86,-4.76 -9.7,-9.54 -14.52,-14.35l-14.51 14.52c4.87,4.85 9.76,9.69 14.68,14.5l14.35 -14.67zm-28.88 -28.83l-5.59 -5.69 -8.68 -8.97 -14.79 14.24 8.78 9.06 5.59 5.69 14.69 -14.33zm-28.34 -29.42c-4.66,-4.94 -9.33,-9.9 -13.93,-14.9l-15.14 13.85c4.66,5.07 9.38,10.09 14.11,15.09l14.96 -14.04zm-27.74 -29.99c-4.58,-5.03 -9.12,-10.09 -13.63,-15.18l-15.4 13.57c4.57,5.15 9.16,10.28 13.8,15.37l15.23 -13.76zm-27.14 -30.54l-8.95 -10.34 -4.36 -5.12 -15.65 13.27 4.44 5.22 9.03 10.44 15.49 -13.47zm-26.46 -31.04l-7.06 -8.48 -5.98 -7.29 -15.9 12.97 6.06 7.39 7.05 8.48 15.83 -13.07zm-25.87 -31.62l-5.12 -6.4 -7.61 -9.62 -16.15 12.67 7.69 9.72 5.12 6.4 16.07 -12.77zm-25.23 -32.14c-4.15,-5.38 -8.27,-10.79 -12.35,-16.23l-16.46 12.26c4.12,5.51 8.3,10.99 12.5,16.44l16.31 -12.47zm-24.57 -32.64c-4.04,-5.46 -8.04,-10.97 -12.01,-16.49l-16.69 11.95c4.03,5.59 8.07,11.16 12.17,16.7l16.53 -12.16zm-23.85 -33.09l-6.6 -9.4 -5.11 -7.38 -16.91 11.63 5.18 7.49 6.6 9.4 16.84 -11.74zm-23.21 -33.62l-4.53 -6.73 -6.84 -10.28 -17.13 11.3 6.91 10.39 4.53 6.73 17.06 -11.41zm-22.51 -34.1c-3.7,-5.7 -7.37,-11.43 -10.98,-17.19l-17.41 10.88c3.67,5.83 7.38,11.63 11.12,17.4l17.27 -11.09zm-21.82 -34.54l-7.03 -11.48 -3.58 -5.94 -17.61 10.55 3.65 6.04 7.1 11.6 17.47 -10.77zm-21.06 -34.94l-4.97 -8.47 -5.32 -9.21 -17.8 10.22 5.39 9.32 4.97 8.47 17.73 -10.33zm-20.37 -35.42c-3.32,-5.92 -6.64,-11.86 -9.9,-17.83l-18.05 9.78c3.3,6.04 6.66,12.05 10.03,18.05l17.92 -10zm-19.64 -35.82c-3.22,-5.99 -6.38,-12.01 -9.52,-18.04l-18.23 9.44c3.18,6.1 6.38,12.2 9.64,18.26l18.11 -9.66zm-18.87 -36.17l-4.75 -9.4 -4.43 -8.88 -18.4 9.09 4.48 9 4.76 9.4 18.34 -9.21zm-18.14 -36.61c-2.96,-6.12 -5.92,-12.25 -8.79,-18.41l-18.62 8.64c2.91,6.24 5.9,12.44 8.9,18.64l18.51 -8.87zm-17.4 -36.97c-2.84,-6.17 -5.63,-12.38 -8.4,-18.59l-18.77 8.29c2.8,6.29 5.62,12.57 8.5,18.82l18.67 -8.52zm-16.6 -37.26l-4.13 -9.57 -3.91 -9.25 -18.93 7.95 3.97 9.36 4.12 9.57 18.88 -8.06zm-15.86 -37.66c-2.57,-6.3 -5.14,-12.6 -7.63,-18.92l-19.12 7.48c2.53,6.4 5.12,12.78 7.73,19.15l19.02 -7.71zm-15.09 -37.97c-2.46,-6.34 -4.85,-12.71 -7.23,-19.08l-19.25 7.13c2.41,6.44 4.83,12.89 7.33,19.31l19.15 -7.36zm-14.28 -38.22l-3.26 -9.06 -3.6 -10.22 -19.38 6.77 3.65 10.34 3.26 9.06 19.33 -6.89zm-13.5 -38.57c-2.19,-6.44 -4.35,-12.88 -6.46,-19.35l-19.53 6.3c2.13,6.55 4.32,13.07 6.53,19.59l19.46 -6.54zm-12.73 -38.83l-3.82 -12.2 -2.23 -7.28 -19.64 5.94 2.26 7.4 3.86 12.33 19.57 -6.19zm-11.9 -39.02l-2.33 -7.97 -3.33 -11.62 -19.78 5.46 3.39 11.87 2.33 7.96 19.72 -5.7zm-11.12 -39.32c-1.79,-6.56 -3.54,-13.14 -5.25,-19.72l-19.88 5.11c1.73,6.66 3.5,13.32 5.31,19.96l19.82 -5.35zm-10.31 -39.48l-2.69 -10.88 -2.16 -9 -19.97 4.75 2.19 9.12 2.7 10.88 19.93 -4.87zm-9.5 -39.74c-1.51,-6.63 -3.02,-13.27 -4.44,-19.92l-20.08 4.27c1.45,6.73 2.97,13.44 4.5,20.15l20.02 -4.5zm-8.7 -39.93c-1.39,-6.66 -2.71,-13.33 -4.02,-20l-20.15 3.9 1.28 6.51 2.79 13.73 20.1 -4.14zm-7.86 -40.04l-1.67 -9.07 -1.97 -11.07 -20.22 3.54 1.99 11.19 1.68 9.07 20.19 -3.66zm-7.06 -40.25c-1.11,-6.71 -2.18,-13.43 -3.22,-20.14l-20.29 3.05c1.04,6.8 2.13,13.6 3.26,20.39l20.25 -3.3zm-6.23 -40.32l-1.65 -11.66 -1.16 -8.61 -20.35 2.68 1.17 8.74 1.65 11.66 20.34 -2.81zm-5.42 -40.51c-0.83,-6.75 -1.64,-13.5 -2.4,-20.25l-20.4 2.19c0.74,6.84 1.58,13.68 2.42,20.51l20.38 -2.45zm-4.59 -40.6c-0.71,-6.77 -1.36,-13.54 -1.98,-20.31l-20.45 1.83c0.64,6.86 1.29,13.71 2,20.56l20.43 -2.08zm-3.76 -40.63l-0.76 -9.38 -0.82 -11.02 -20.47 1.46 0.82 11.15 0.76 9.38 20.47 -1.59zm-2.94 -40.76c-0.43,-6.79 -0.82,-13.58 -1.16,-20.37l-20.5 0.98c0.34,6.87 0.74,13.74 1.17,20.61l20.49 -1.22zm-2.12 -40.75l-0.46 -11.78 -0.29 -8.67 -20.51 0.61 0.29 8.79 0.46 11.78 20.51 -0.73zm-1.28 -40.85c-0.14,-6.8 -0.27,-13.6 -0.34,-20.4l-20.52 0.12c0.06,6.88 0.19,13.77 0.33,20.65l20.53 -0.37zm-0.46 -40.86c-0.02,-6.8 0.02,-13.61 0.08,-20.4l-20.52 -0.25c-0.06,6.89 -0.1,13.77 -0.08,20.65l20.52 0zm0.37 -40.8l0.19 -9.3 0.3 -11.16 -20.51 -0.61 -0.3 11.29 -0.2 9.29 20.52 0.49zm1.2 -40.85c0.27,-6.8 0.57,-13.59 0.91,-20.38l-20.49 -1.1c-0.35,6.87 -0.66,13.75 -0.92,20.62l20.5 0.86zm2.02 -40.75l0.73 -11.65 0.6 -8.77 -20.47 -1.47 -0.61 8.9 -0.73 11.64 20.48 1.35zm2.86 -40.77c0.55,-6.78 1.1,-13.56 1.74,-20.33l-20.44 -1.95c-0.64,6.85 -1.19,13.71 -1.75,20.57l20.45 1.71zm3.68 -40.7c0.67,-6.76 1.41,-13.53 2.16,-20.29l-20.4 -2.32c-0.75,6.84 -1.5,13.69 -2.17,20.54l20.41 2.07zm4.51 -40.55l1.13 -9.21 1.43 -11.09 -20.35 -2.69 -1.45 11.22 -1.13 9.21 20.37 2.56zm5.33 -40.52c0.95,-6.73 1.94,-13.46 2.97,-20.18l-20.27 -3.18c-1.05,6.81 -2.05,13.62 -3.01,20.43l20.31 2.93zm6.14 -40.34l1.93 -11.64 1.47 -8.53 -20.22 -3.54 -1.49 8.66 -1.93 11.64 20.24 3.41zm6.99 -40.26c1.23,-6.68 2.47,-13.38 3.78,-20.04l-20.13 -4.03c-1.32,6.75 -2.58,13.52 -3.83,20.29l20.18 3.78zm7.79 -40.11c1.35,-6.67 2.76,-13.32 4.2,-19.97l-20.05 -4.38c-1.46,6.72 -2.89,13.46 -4.25,20.21l20.1 4.14zm8.59 -39.89l2.17 -9.51 2.45 -10.42 -19.97 -4.75 -2.47 10.55 -2.18 9.5 20 4.63zm9.43 -39.76c1.63,-6.6 3.29,-13.19 5,-19.77l-19.85 -5.23c-1.72,6.66 -3.41,13.33 -5.07,20.01l19.92 4.99zm10.22 -39.56c1.76,-6.57 3.59,-13.12 5.42,-19.67l-19.75 -5.59 -2.15 7.68 -3.33 12.23 19.81 5.35zm11.03 -39.29l2.26 -7.7 3.54 -11.85 -19.61 -6.07 -3.61 12.09 -2.26 7.71 19.68 5.82zm11.84 -39.1c2.03,-6.49 4.11,-12.97 6.21,-19.43l-19.49 -6.42c-2.14,6.54 -4.24,13.1 -6.29,19.66l19.57 6.19zm12.62 -38.81l3.59 -10.58 3.03 -8.77 -19.37 -6.78 -3.07 8.89 -3.6 10.59 19.42 6.65zm13.43 -38.59c2.31,-6.39 4.63,-12.79 7,-19.15l-19.21 -7.25c-2.41,6.44 -4.75,12.92 -7.08,19.4l19.29 7zm14.22 -38.3c2.41,-6.35 4.9,-12.69 7.39,-19.01l-19.06 -7.6c-2.53,6.4 -5.04,12.81 -7.49,19.25l19.16 7.36zm14.98 -37.95l3.89 -9.51 3.91 -9.4 -18.92 -7.95 -3.96 9.52 -3.89 9.51 18.97 7.83zm15.78 -37.69c2.69,-6.24 5.4,-12.48 8.16,-18.69l-18.72 -8.41c-2.8,6.29 -5.54,12.6 -8.27,18.92l18.83 8.18zm16.55 -37.36c2.8,-6.19 5.67,-12.36 8.55,-18.52l-18.56 -8.75c-2.92,6.24 -5.82,12.48 -8.66,18.75l18.67 8.52zm17.29 -36.95l4.35 -9.02 4.6 -9.38 -18.4 -9.09 -4.65 9.49 -4.36 9.02 18.46 8.98zm18.07 -36.64c3.07,-6.06 6.16,-12.13 9.3,-18.16l-18.17 -9.54c-3.18,6.1 -6.31,12.23 -9.41,18.37l18.28 9.33zm18.82 -36.27l6.77 -12.64 2.91 -5.31 -17.99 -9.89c-3.3,6.05 -6.58,12.1 -9.8,18.18l18.11 9.66zm19.53 -35.81l5.17 -9.2 4.9 -8.61 -17.79 -10.22 -4.98 8.72 -5.16 9.2 17.86 10.11zm20.3 -35.45c3.44,-5.87 6.89,-11.73 10.4,-17.55l-17.54 -10.66c-3.54,5.9 -7.05,11.83 -10.53,17.76l17.67 10.45zm21.02 -35.04c3.55,-5.79 7.15,-11.57 10.76,-17.33l-17.33 -10.99c-3.67,5.83 -7.31,11.68 -10.9,17.55l17.47 10.77zm21.7 -34.55l6.54 -10.11 4.62 -7.04 -17.13 -11.31 -4.69 7.15 -6.54 10.11 17.2 11.2zm22.44 -34.14l4.81 -7.13 6.69 -9.79 -16.91 -11.63 -6.76 9.9 -4.81 7.13 16.98 11.52zm23.14 -33.66c3.91,-5.57 7.84,-11.12 11.81,-16.64l-16.62 -12.04c-4.02,5.57 -8,11.2 -11.95,16.83l16.76 11.85zm23.82 -33.2c4.02,-5.49 8.07,-10.94 12.15,-16.38l-16.38 -12.36c-4.13,5.51 -8.25,11.03 -12.31,16.59l16.54 12.15zm24.46 -32.65l7.09 -9.21 5.43 -6.97 -16.15 -12.67 -5.51 7.07 -7.09 9.21 16.23 12.57zm25.16 -32.18l5.43 -6.79 7.41 -9.14 -15.91 -12.97 -7.48 9.23 -5.44 6.79 15.99 12.88zm25.81 -31.68c4.34,-5.22 8.71,-10.44 13.11,-15.61l-15.57 -13.37c-4.46,5.24 -8.88,10.52 -13.28,15.81l15.74 13.17zm26.44 -31.14c4.45,-5.14 8.93,-10.26 13.44,-15.34l-15.32 -13.66c-4.56,5.15 -9.11,10.33 -13.61,15.53l15.49 13.47zm27.06 -30.6l9.12 -10.03 4.63 -5.03 -15.05 -13.95 -4.72 5.12 -9.21 10.13 15.23 13.76zm27.64 -30l7.78 -8.22 6.31 -6.61 -14.78 -14.23 -6.41 6.7 -7.77 8.22 14.87 14.14zm28.29 -29.48l6.43 -6.55 7.95 -8 -14.52 -14.52 -8.04 8.1 -6.43 6.55 14.61 14.42zm2416.77 2385.48l14.51 14.51 -1.1 1.11c-0.51,0.5 -1,0.87 -1.57,1.27 -10.41,6.69 -21.53,-7.2 -12.85,-15.88l1.01 -1.01zm-31.38 58.43c3.4,-3.13 4.33,-8.15 2.19,-12.28 -3.09,-5.97 -11.08,-7.43 -16.05,-2.86l-6.79 6.19 -6.64 5.95c-5.65,5.01 -11.3,9.99 -17,14.92 -8.24,6.97 -1.23,20.77 9.75,17.58 1.42,-0.47 2.49,-1.06 3.62,-2.01l10.53 -9.17 6.76 -6 6.74 -6.05 6.89 -6.27zm-78.74 66.99c8.9,-6.92 1.52,-21.51 -9.81,-17.73 -1.11,0.45 -1.9,0.85 -2.86,1.59 -5.87,4.64 -11.78,9.21 -17.71,13.77 -4.85,3.69 -9.7,7.39 -14.6,11.01 -2.74,1.96 -4.38,5.43 -4.17,8.81 0.51,8.21 9.64,12.51 16.32,7.73 5.01,-3.68 9.96,-7.48 14.91,-11.24 6,-4.62 11.98,-9.24 17.92,-13.94zm-83.4 61.09c2.99,-1.96 4.77,-5.54 4.54,-9.11 -0.5,-7.97 -9.3,-12.31 -15.95,-7.95l-13.86 9.28c-6.73,4.41 -13.46,8.78 -20.24,13.1 -8.28,5.42 -5.21,17.95 4.7,18.91 2.22,0.13 4.43,-0.35 6.28,-1.57 6.89,-4.39 13.73,-8.83 20.57,-13.32l7.35 -4.88 6.61 -4.46zm-87.59 54.77c10.49,-6.15 3.62,-22.38 -8.44,-18.61 -0.62,0.22 -1.22,0.48 -1.78,0.8 -5.32,3.08 -10.7,6.09 -16.06,9.11 -6.5,3.59 -13,7.17 -19.54,10.68 -10.45,5.57 -4.63,21.99 7.62,18.93 0.74,-0.23 1.36,-0.46 2.04,-0.82l12.24 -6.64c8,-4.43 16,-8.88 23.92,-13.45zm-91.43 48.2c2.24,-1.09 3.93,-2.83 4.95,-5.1 3.88,-8.65 -5.29,-17.54 -13.82,-13.41 -12.22,5.9 -24.57,11.6 -36.96,17.11 -4.31,1.89 -6.82,6.59 -5.95,11.25 1.22,6.52 8.14,10.19 14.24,7.53 12.58,-5.61 25.13,-11.39 37.54,-17.38zm-94.73 41.35c10.33,-3.87 7.95,-20.17 -4.47,-19.8 -1.1,0.1 -1.96,0.29 -3.01,0.68l-10.28 4.01c-9.26,3.53 -18.52,7 -27.84,10.35 -11.41,4.28 -7.41,20.96 4.43,19.88 0.85,-0.1 1.65,-0.24 2.46,-0.55 6.78,-2.43 13.52,-4.94 20.27,-7.46 6.16,-2.34 12.31,-4.69 18.44,-7.11zm-97.5 34.28c4.62,-1.44 7.63,-5.89 7.19,-10.73 -0.59,-6.47 -7.03,-10.82 -13.25,-8.88 -12.96,4.06 -26,7.87 -39.08,11.53 -11.31,3.09 -9.34,20.15 2.91,20.15 0.9,-0.02 1.69,-0.13 2.56,-0.37 13.27,-3.71 26.52,-7.58 39.67,-11.7zm-99.74 27.06c11.61,-2.73 10,-19.9 -2.12,-20.26 -0.87,0 -1.65,0.06 -2.5,0.26 -13.21,3.11 -26.52,5.95 -39.82,8.64 -11.03,2.34 -11.02,18.06 0.38,20.2 1.39,0.18 2.26,0.17 3.64,-0.07 13.5,-2.74 27.01,-5.61 40.42,-8.77zm-101.44 19.71c12.31,-2.18 11.13,-20.02 -1.55,-20.41 -0.53,0 -1.11,0.04 -1.63,0.13 -13.34,2.21 -26.92,3.99 -40.34,5.72 -11.35,1.33 -12.26,18.08 -0.45,20.29 1.07,0.16 1.95,0.19 3.02,0.07 13.62,-1.75 27.4,-3.56 40.95,-5.8zm-102.67 12.27c10.16,-0.59 13.43,-14.91 3.21,-19.68 -1.68,-0.67 -3.03,-0.88 -4.8,-0.78 -13.42,1.09 -27.26,2.28 -40.7,2.78 -2.54,0.17 -4.87,1.15 -6.67,2.95 -6.7,6.7 -1.55,18.09 7.7,17.55 13.49,-0.38 27.76,-1.73 41.26,-2.82zm-41.26 2.82l-0.98 -20.5 0.98 20.5zm-61.97 1.97c4.57,0 8.43,-3.02 9.78,-7.33 1.93,-6.65 -2.98,-13.19 -9.9,-13.19 -13.57,0.12 -27.17,0.11 -40.74,-0.18 -2.73,0 -4.64,0.7 -6.78,2.34 -7.3,6.09 -3.18,17.91 6.29,18.18 13.77,0.31 27.58,0.3 41.35,0.18zm-103.3 -2.71c7.71,0.45 13.22,-7.36 10.03,-14.47 -1.6,-3.42 -4.85,-5.79 -8.68,-6.01 -13.56,-0.85 -27.1,-1.88 -40.62,-3.13 -4.52,-0.54 -9.1,2.4 -10.61,6.65 -2.29,6.47 1.88,12.98 8.65,13.78 13.73,1.27 27.48,2.32 41.23,3.18zm-102.83 -10.2c12.95,1.53 16.3,-17.02 3.72,-20.16l-0.91 -0.17c-13.46,-1.82 -26.89,-3.86 -40.29,-6.08 -4.93,-0.87 -9.97,2.16 -11.46,6.96 -1.89,6.03 1.83,12.18 8.05,13.28 13.6,2.25 27.22,4.32 40.89,6.17zm-300.26 -74.95c10.79,4.05 19.24,-10.51 9.67,-17.87 -0.84,-0.59 -1.57,-1.01 -2.55,-1.38 -5.41,-1.99 -10.81,-4.06 -16.2,-6.11 -7.28,-2.82 -14.54,-5.68 -21.79,-8.59 -11.58,-4.34 -19.63,10.96 -9.55,18.05 0.61,0.4 1.15,0.68 1.83,0.97 10.04,4.03 20.08,7.94 30.19,11.79l8.4 3.14zm-95.56 -39.41c11.47,5.02 20.24,-10.64 10.06,-17.81 -0.54,-0.34 -0.96,-0.58 -1.54,-0.86 -7.9,-3.57 -15.76,-7.31 -23.6,-11.03l-13.2 -6.42c-5.62,-2.72 -12.04,-0.04 -14.21,5.74 -1.74,4.89 0.46,10.41 5.12,12.66l13.43 6.53c7.95,3.78 15.92,7.57 23.94,11.19zm-92.39 -46.33c9.88,5.28 19.77,-6.54 13.03,-15.3 -0.93,-1.12 -1.87,-2 -3.15,-2.68l-8.65 -4.78 -14.98 -8.48 -11.79 -6.85c-10.01,-5.87 -20.89,6.93 -12.57,16 0.66,0.66 1.34,1.21 2.13,1.67l12.01 6.98c7.96,4.53 15.93,9.06 23.97,13.44zm-88.75 -52.99c9.42,6.17 20.88,-5.46 13.58,-15.05 -0.73,-0.88 -1.44,-1.54 -2.38,-2.15l-9.82 -6.42 -14.46 -9.68 -9.56 -6.56c-9.03,-6.44 -20.98,4.64 -14.17,14.47 0.75,0.97 1.42,1.65 2.43,2.37 5.67,3.92 11.38,7.79 17.1,11.64l7.35 4.88 9.93 6.5zm-84.63 -59.38c8.79,6.84 21.14,-3.74 14.79,-13.83 -0.7,-1 -1.34,-1.71 -2.32,-2.48 -6.26,-4.75 -12.46,-9.55 -18.66,-14.38l-13.49 -10.72c-8.43,-6.56 -19.85,2.1 -15.93,11.9 0.72,1.6 1.63,2.98 3.05,4.09l6.68 5.34 7.02 5.54c6.26,4.88 12.54,9.74 18.86,14.54zm-80.02 -65.35c9.1,7.69 21.78,-3.16 15.32,-13.41 -0.56,-0.79 -1.03,-1.33 -1.75,-2l-7.66 -6.78 -6.64 -5.95 -6.61 -6.01 -9.28 -8.58c-8.61,-7.93 -21.81,2.27 -15.79,12.81 0.51,0.8 1.03,1.5 1.74,2.15l9.48 8.76 6.7 6.09 6.74 6.05 7.75 6.87zm-75.12 -71.02c8.49,8.5 22.25,-1.77 16.12,-12.48 -0.42,-0.67 -0.86,-1.28 -1.43,-1.85l-11.26 -11.55c-5.68,-5.95 -11.33,-11.9 -16.94,-17.92 -7.34,-7.98 -20.8,-0.38 -17.19,10.42 0.56,1.42 1.09,2.4 2.14,3.53l10.9 11.62 6.3 6.58 11.36 11.65zm-69.8 -76.17c7.07,8.35 20.79,1.2 17.64,-9.65 -0.47,-1.41 -1.03,-2.5 -1.98,-3.63l-7.99 -9.44 -5.65 -6.8c-4.13,-5.03 -8.27,-10.05 -12.32,-15.13 -6.89,-8.86 -21.69,-1.41 -17.61,10.09 0.44,1.04 0.85,1.79 1.54,2.68l6.87 8.49 5.69 6.94 5.75 6.9 8.06 9.55zm-64.13 -81.08c6.5,9.1 21.45,2.44 18.07,-9.19 -0.39,-1.11 -0.78,-1.91 -1.46,-2.86 -8.02,-11 -15.88,-22.05 -23.63,-33.25 -6.53,-9.14 -20.56,-3.05 -18.52,7.82 0.31,1.4 0.78,2.66 1.6,3.81l4.21 6.08 10.22 14.47 9.51 13.12zm-57.99 -85.5c6.96,10.62 22.99,2.11 18.08,-9.61l-0.68 -1.27c-3.28,-5.18 -6.47,-10.43 -9.67,-15.67 -3.84,-6.37 -7.66,-12.74 -11.43,-19.16 -4.59,-7.83 -16.21,-6.36 -18.77,2.49 -0.64,2.8 -0.45,5.31 1.03,7.84l7.1 11.99 9.11 14.99 5.23 8.4zm-51.59 -89.57c5.79,10.86 22.37,4.18 18.91,-7.74 -0.2,-0.63 -0.44,-1.24 -0.74,-1.81 -6.36,-11.98 -12.52,-24.12 -18.48,-36.3 -5.12,-10.56 -21.55,-5.52 -19.28,6.6 0.22,0.88 0.42,1.56 0.82,2.39 3.13,6.39 6.33,12.74 9.54,19.09 3.05,5.94 6.1,11.88 9.23,17.77zm-44.86 -93.12c1.74,3.98 5.72,6.41 10.09,6.15 7.04,-0.44 11.58,-7.84 8.74,-14.33l-4.68 -10.8 -3.31 -7.82c-2.62,-6.3 -5.23,-12.61 -7.78,-18.94 -0.89,-2.39 -2.94,-4.49 -5.25,-5.53 -8.46,-3.79 -17.1,4.37 -13.82,13.13 5.15,12.79 10.48,25.51 16.01,38.14zm-37.89 -96.16c4.43,11.81 21.67,7.19 19.81,-5.07 -0.11,-0.61 -0.24,-1.11 -0.43,-1.7 -4.53,-12.8 -8.84,-25.69 -12.97,-38.62 -1.26,-3.76 -4.27,-6.42 -8.21,-7.05 -7.54,-1.14 -13.64,5.95 -11.36,13.23 4.18,13.13 8.57,26.22 13.16,39.21zm-30.74 -98.67c3.17,11.63 20.54,9.18 20.17,-3.11 -0.05,-0.77 -0.14,-1.48 -0.35,-2.24 -3.58,-13.09 -6.94,-26.27 -10.11,-39.46 -2.7,-11.47 -19.88,-10.03 -20.25,2.24 0.03,0.91 0.07,1.6 0.28,2.5 3.22,13.4 6.63,26.78 10.26,40.07zm-23.45 -100.65c1.9,10.74 18.02,11.41 20.22,-0.32 0.2,-1.24 0.15,-2.35 -0.06,-3.58 -2.64,-13.31 -4.99,-26.71 -7.21,-40.1 -2.24,-12.73 -21.13,-10.71 -20.36,2.51 1.69,13.38 4.78,28.18 7.41,41.49zm-16.05 -102.08c1.35,11.48 18.1,12.29 20.3,0.51 0.17,-1 0.2,-1.95 0.08,-2.96 -1.64,-13.48 -3.01,-26.99 -4.27,-40.51 -1.42,-12.08 -18.16,-12.46 -20.34,-0.81 -0.14,0.91 -0.18,1.72 -0.1,2.64 1.27,13.73 2.67,27.44 4.33,41.13zm-8.59 -103.04c0.31,5.33 4.32,9.5 9.69,9.82 5.93,0.35 11.16,-4.69 10.81,-10.68 -0.6,-13.63 -0.88,-27.16 -1.32,-40.78 -0.06,-10.82 -15.5,-14.34 -19.9,-3.35 -0.44,1.25 -0.62,2.35 -0.62,3.65 0.39,13.81 0.72,27.53 1.34,41.34zm-1.34 -41.34l20.52 -0.24 -20.52 0.24zm0.25 -61.99c-0.35,12.26 17.66,14.83 20.35,2.17 0.1,-0.52 0.15,-1.05 0.16,-1.56 0.36,-13.58 0.88,-27.15 1.63,-40.71 0.7,-11.86 -16.37,-15.41 -20.12,-3.4 -0.19,0.75 -0.32,1.4 -0.37,2.18 -0.76,13.76 -1.29,27.54 -1.65,41.32zm6.4 -103.14c-0.24,2.01 0.23,4.21 1.22,5.99 5.01,8.76 18.02,6.12 19.2,-3.91 1.33,-13.51 2.85,-27.01 4.58,-40.48 1.46,-12.4 -16.2,-16.45 -20.06,-4.1 -0.11,0.47 -0.23,0.92 -0.28,1.41 -1.76,13.67 -3.3,27.37 -4.66,41.09zm13.87 -102.4c-2.01,11.43 13.83,16.92 19.27,6.41 0.46,-0.98 0.76,-1.8 0.95,-2.87 2.31,-13.39 4.82,-26.73 7.52,-40.04 2.46,-11.58 -14.08,-17.7 -19.48,-6.13 -0.27,0.67 -0.47,1.27 -0.62,1.98 -2.75,13.51 -5.29,27.06 -7.64,40.65zm21.3 -101.13c-2.63,11.16 11.87,17.61 18.41,8.31 0.74,-1.17 1.12,-1.95 1.5,-3.32 3.26,-13.18 6.76,-26.31 10.42,-39.38 3.15,-11.56 -12.63,-18.39 -18.84,-7.8 -0.38,0.73 -0.69,1.4 -0.91,2.21 -3.71,13.27 -7.28,26.6 -10.58,39.98zm28.62 -99.3c-3.53,10.56 10.29,18.51 17.68,9.72 0.82,-1.08 1.37,-1.99 1.81,-3.31 4.22,-12.9 8.68,-25.73 13.27,-38.5 3.92,-10.44 -9.95,-19.09 -17.65,-9.92 -0.73,0.94 -1.21,1.77 -1.63,2.9 -3.56,9.89 -7,19.8 -10.38,29.75l-3.1 9.36zm35.81 -96.95c-4.41,10.53 9.62,19.71 17.55,10.28 0.6,-0.8 1.04,-1.52 1.43,-2.45l3.67 -8.84 3.31 -7.84c2.99,-6.93 6.01,-13.85 9.08,-20.75 4.86,-11.11 -10.09,-20.09 -17.62,-10.31 -0.43,0.61 -0.8,1.21 -1.11,1.9 -3.12,7.02 -6.18,14.05 -9.22,21.11 -2.38,5.62 -4.77,11.25 -7.09,16.9zm42.85 -94.06c-5.32,11 9.29,20.42 17.1,11.11 0.48,-0.61 0.9,-1.21 1.24,-1.9 4.05,-8.12 8.22,-16.17 12.42,-24.22l6.35 -11.93c4.97,-9.32 -5.59,-19.18 -14.58,-13.52 -1.5,1.04 -2.6,2.12 -3.47,3.75l-6.47 12.15 -8 15.45 -4.59 9.11zm49.64 -90.67c-1.55,2.58 -1.88,5.68 -0.92,8.54 2.76,8.29 14.04,9.5 18.53,2.02 4.9,-8.23 9.91,-16.38 14.96,-24.52l6.42 -10.15c6.13,-9.36 -5.57,-20.85 -15.09,-13.53 -0.9,0.75 -1.54,1.46 -2.18,2.44l-6.55 10.36 -4.63 7.46c-3.53,5.78 -7.07,11.56 -10.54,17.38zm56.19 -86.76c-6.69,9.35 5.15,21.35 14.82,13.91 0.77,-0.65 1.36,-1.26 1.94,-2.07 4.33,-6.16 8.7,-12.28 13.1,-18.39l5.16 -7.07 5.6 -7.55c6.65,-8.56 -3.45,-20.72 -13.39,-15.04 -1.26,0.8 -2.07,1.48 -3,2.67l-5.75 7.77 -10.42 14.37 -8.06 11.4zm62.38 -82.43c-7.3,8.62 3.29,21.7 13.74,14.98 0.79,-0.55 1.45,-1.16 2.09,-1.91l11.17 -13.53 5.71 -6.77 9.36 -10.93c2.57,-3.04 3.22,-6.95 1.73,-10.68 -2.79,-6.96 -12.35,-8.53 -17.22,-2.79l-9.53 11.12 -5.79 6.88 -5.75 6.91 -5.51 6.72z"/>
    <path class="fil0" d="M2089.22 2878.79c26.72,-26.72 70.04,-26.72 96.76,0 26.72,26.72 26.72,70.04 0,96.76 -26.72,26.72 -70.04,26.71 -96.76,0 -26.71,-26.72 -26.72,-70.04 0,-96.76zm-1061.53 -453.22c-10.66,-10.66 -26.61,-12.82 -39.41,-6.46 -2.03,1.01 -3.98,2.23 -5.82,3.67 -1.09,0.86 -2.14,1.78 -3.14,2.79 -6.32,6.31 -9.64,14.47 -9.99,22.73 -0.29,6.86 1.47,13.78 5.28,19.78 1.32,2.08 2.89,4.05 4.71,5.87 13.35,13.35 35.01,13.35 48.37,0 6.31,-6.31 9.64,-14.47 9.99,-22.73 0.29,-6.86 -1.47,-13.78 -5.28,-19.78 -1.32,-2.08 -2.89,-4.05 -4.71,-5.87zm-644.47 488.81c-13.35,-13.35 -35.01,-13.36 -48.37,0 -6.31,6.31 -9.64,14.47 -9.99,22.73 -0.29,6.86 1.47,13.79 5.28,19.79 1.32,2.08 2.89,4.05 4.71,5.86 13.36,13.36 35.02,13.36 48.37,0 6.31,-6.31 9.64,-14.46 9.99,-22.73 0.3,-6.85 -1.46,-13.78 -5.27,-19.78 -1.33,-2.08 -2.9,-4.05 -4.72,-5.87zm3333.6 523.5c-26.72,26.72 -70.03,26.72 -96.75,0 -26.72,-26.71 -26.72,-70.03 0,-96.75l96.75 96.75zm-262.08 50.41c26.72,-26.72 70.04,-26.72 96.76,0 26.71,26.71 26.72,70.03 0,96.75 -26.72,26.72 -70.04,26.72 -96.76,0 -26.72,-26.72 -26.72,-70.04 0,-96.75zm-220.54 132.92c26.72,-26.72 70.04,-26.71 96.76,0 26.71,26.72 26.71,70.04 0,96.76 -26.72,26.72 -70.04,26.72 -96.76,0 -26.72,-26.72 -26.72,-70.04 0,-96.76zm-206.32 92.34c26.72,-26.72 70.04,-26.72 96.76,0 26.72,26.72 26.72,70.03 0,96.76 -26.72,26.72 -70.04,26.71 -96.76,0 -26.72,-26.72 -26.72,-70.04 0,-96.76zm-224.12 70.59c26.73,-26.72 70.04,-26.71 96.76,0 26.72,26.72 26.72,70.04 0,96.76 -26.72,26.72 -70.04,26.72 -96.76,0 -26.71,-26.72 -26.71,-70.03 0,-96.76zm-239.58 44.99c26.72,-26.72 70.04,-26.72 96.76,0 26.71,26.71 26.72,70.03 0,96.75 -26.72,26.72 -70.04,26.72 -96.76,0 -26.72,-26.71 -26.72,-70.03 0,-96.75zm-251.87 15.7c26.72,-26.72 70.04,-26.72 96.76,0 26.71,26.72 26.72,70.03 0,96.75 -26.72,26.73 -70.04,26.72 -96.76,0 -26.71,-26.71 -26.72,-70.03 0,-96.75zm-231.65 -13.44c26.72,-26.72 70.04,-26.72 96.75,0 26.73,26.72 26.73,70.04 0,96.76 -26.71,26.72 -70.03,26.72 -96.75,0 -26.72,-26.72 -26.72,-70.04 0,-96.76zm-237.81 -42.2c26.72,-26.72 70.04,-26.72 96.76,0 26.72,26.72 26.72,70.03 0,96.75 -26.72,26.72 -70.04,26.72 -96.76,0 -26.72,-26.72 -26.72,-70.03 0,-96.75zm-373.48 -1527.52c26.72,-26.72 70.03,-26.72 96.75,0 26.72,26.71 26.72,70.03 0,96.75 -26.72,26.72 -70.04,26.72 -96.75,0 -26.72,-26.72 -26.72,-70.04 0,-96.75zm1558.23 486.99c-26.72,26.72 -70.04,26.72 -96.76,0 -26.71,-26.72 -26.72,-70.04 0,-96.75l96.76 96.75zm-1741.7 -1741.7c-26.72,26.72 -70.04,26.72 -96.76,0 -26.71,-26.72 -26.71,-70.04 0,-96.76l96.76 96.76zm506.12 506.12c-26.72,26.72 -70.04,26.71 -96.76,0 -26.72,-26.72 -26.72,-70.04 0,-96.76l96.76 96.76zm-1572.92 1113.5c13.36,-13.36 35.02,-13.36 48.38,0 13.36,13.36 13.36,35.01 0,48.38 -13.36,13.36 -35.02,13.36 -48.38,0 -13.36,-13.36 -13.36,-35.02 0,-48.38zm118.39 -31.65c13.36,-13.37 35.02,-13.36 48.38,0 13.36,13.36 13.36,35.01 0,48.37 -13.36,13.36 -35.02,13.36 -48.38,0 -13.35,-13.36 -13.36,-35.01 0,-48.37z"/>
   </g>
   <path class="fil0" d="M2740.16 2461.24c30.27,59.51 71.55,197.34 -9.35,277.65 -54.6,16.27 -127.56,-5.53 -214.32,-100.46 -25.62,109.48 -53.72,173.34 -129.52,201.64 -109.97,-9.53 -141.92,-182.38 -154.94,-252.16 -35.26,46.96 -103.83,165.39 -238.83,140.42 -77.57,-78.79 -62.75,-153.79 -42.37,-233.43 -166.99,50.57 -223.83,-21 -238.41,-40.34 -18.3,-85.3 59.1,-197.01 142.44,-230.62 -65.14,-12.68 -200.28,-22.53 -242.26,-159.62 19.71,-62.37 95.85,-133.73 191.37,-122.59 -61.39,-64.9 -125.81,-134.73 -104.41,-234.92 54.79,-46.55 148.9,-73.58 284.81,-1.36l755.79 755.79zm-962.48 -708.03c24.27,105.58 77.44,127.12 170.99,162.05 47.95,17.89 165.99,51.87 212.11,49.7 -102.3,-102.79 -225.91,-266.94 -383.1,-211.75zm-79.94 319.63c63.94,133.03 330.33,36.01 430.99,8.86 -39.92,-30.19 -164.21,-58.54 -223.25,-69.78 -61.02,-11.61 -175.51,-6.14 -207.74,60.92zm91.15 347.81c122.81,90.29 298.74,-135.58 377.77,-217.13 -48.64,-2.31 -160.32,36.2 -210.13,55.63 -85.44,33.25 -145.57,67.14 -167.64,161.5zm240.79 237.3c133.57,-8.94 205.67,-253.18 216.56,-370.92 -76.6,62.37 -318.01,266.06 -216.56,370.92zm282.31 -113.1c-7.05,49.95 0,204.7 65.71,203.87 103.23,-1.26 56,-335.43 -9.28,-426.78 -22.97,77.46 -44.27,136.77 -56.43,222.91zm167.38 -258.9c6.97,57.75 32.43,157.49 53.4,215.56 33.15,91.71 61.11,141.96 157.68,167.84 78.33,-125.31 -119.31,-306.62 -211.08,-383.4z"/>
   <path class="fil1" d="M2035.96 993.48l72.45 47.86 -29.19 114.38c-34.57,-34.79 -38.57,-51.83 -85.96,-77.73 14.88,-25.68 27.2,-67.79 42.7,-84.51zm-45.44 516.9c55.95,-34.43 141.41,94.73 161.04,141.22 33.79,80.2 45.95,142.01 65.99,220.24 -102.91,-44.87 -314.97,-307.38 -227.03,-361.46zm-70.35 141.32l303.22 303.75 86.02 132.34 91.51 45.49 351.22 351.82c38.19,-11.43 67.17,27.75 131.18,24.98l17.95 112.24 126.33 126.34c-38.33,-89.79 -110.63,-192.23 -45.55,-301.94 55.69,-93.87 202.07,-120.83 293.04,-62.55 93.89,60.18 133.33,192.63 59.83,283.58 -106.97,132.35 -238.69,-15.88 -167.74,-110.27 -97.01,4.15 -119.96,206.37 44.76,246.48 126.24,30.75 229.11,-65.62 208.5,-193.04 73.99,52.72 3.64,225.59 -33.8,288.39 64.36,47.61 82.76,88.66 129.29,127.38 22.88,-85.38 46.36,-93.73 83.75,-159.01 -91.89,-55.59 -97.41,-100.45 -104.22,-200.58 -8.82,-129.93 -15.11,-120.34 -86.06,-215.73 263.57,50.3 89.36,429.19 409.82,460.57 111,10.89 208.07,-117.18 180.21,-224.74 -27.75,-107.13 -200.13,-190.79 -237.73,-1.8 48.06,-16.96 68.23,-104.4 154.01,9.36 -32.59,167.87 -199.71,121.88 -261.99,4.26 -23.98,-45.31 -27.72,-105.25 -47.47,-157.48 -32.3,-85.4 -50.63,-79.51 -92.52,-140.02 111.43,30.14 120.78,72.77 187.11,142.83 78.39,-28.26 145.1,-75.58 241.56,-43 117.01,39.55 134.31,149.59 159.3,175.8 42.49,-27.89 79.95,-55.33 136.77,-68.86 54.93,-13.06 138.04,-3.49 169.95,-13.36 -23.44,-23.78 -101.21,-54.64 -143.4,-92.13 -43.67,-38.8 -63.72,-80.69 -87.96,-125.35 -34.42,11.27 -101.72,100.05 -223.52,79.54 -100.39,-16.9 -136.79,-90.16 -192.48,-152.12 -91.58,30.36 -120,63.49 -232.41,37.37 65.52,-33.5 78.9,-19.64 147.74,-79.63 42.1,-36.67 73.75,-87.75 116.3,-116.32 110.49,-74.15 279.49,-35.66 228.8,127.65 -129.38,59.69 -105.8,-26.9 -140.11,-64.57 -56.24,184.32 135.18,192.14 210.32,110.87 75.41,-81.63 50.46,-240.36 -52.47,-283.27 -297.22,-123.9 -322.9,292.33 -578.96,211.98 107.63,-50.47 108.66,-39.08 177.88,-149.36 53.34,-84.99 79.42,-121.92 186.68,-127.44 -2.07,-75.21 -18.82,-93.67 1.41,-179.7 -59.29,12.09 -94.95,39.57 -174.15,51.05 3.3,73.07 -16.49,258.65 -106.61,270.09 78.41,-102.52 33.36,-236.06 -92.4,-268.69 -164.11,-42.56 -239.54,146.43 -156.05,196.02 -17.84,-116.71 168.33,-185.05 199.97,-17.84 21.75,114.9 -75.62,212.95 -186.84,221.55 -107.71,8.34 -223.93,-84.64 -228.62,-193.66 -5.46,-127.47 111.72,-177.67 187.94,-238.63 -110.47,5.17 -241.9,-7.21 -294.41,-120.05 -43.63,-93.76 22.05,-236.35 117.82,-276.64 103.29,-43.41 240.26,4.34 267.17,122.92 28,123.29 -93.57,175.01 -196.1,66.02 -8.69,138.18 165.92,179.28 246.36,86.41 129.65,-149.65 -8.22,-235.29 -57.49,-282.09 88.23,-34.16 201.06,143.06 229.49,174.43 68.66,-25.57 116.8,-25.59 167.96,-42.76 -13.21,-24.22 -34.6,-43.87 -51.69,-69.33 -19.77,-29.46 -22.46,-52.92 -36.23,-79.87 -126.25,30.54 -104.91,41.65 -236.03,-19.6 -35.29,-16.49 -74.69,-33.64 -112.87,-39.41 -58.56,-8.86 -63.86,5.15 -114.23,7.12 98.05,-93.96 208.53,-65.01 335.88,-31.06 106.54,28.36 236.91,1.37 282,-111.96 44.62,-112.09 -32.62,-252.18 -151.14,-252.28 -149.56,-0.15 -198.48,172.16 -71.58,206.65 -63.62,-91.66 24.31,-147.54 88.18,-110.87 69.44,39.87 34.98,139.58 -21.32,180.18 -77.93,56.25 -132.76,33.31 -223.06,9.22 -130.71,-34.86 -114.31,-10.29 -222,-2.93 35.69,-57.82 143.95,-88.84 212.04,-84.11 14.35,-91.74 10.79,-176.53 91.54,-243.04 64.75,-53.34 145.52,-56.7 226.82,-36.75 -26.73,-179.1 17.33,-169.71 76.75,-312.49 -114.33,43.6 -154.18,119.6 -309.31,84.98 45.79,225.58 -61.41,307.56 -269.73,326.84 2.99,52.31 -29.35,213.38 -83.83,214.02 78.99,-142.53 -93.92,-287.81 -7.95,-437.61 76.26,-132.91 266.47,-38.19 178.57,56.2 -45.67,49.05 -52.09,8.64 -97.87,24.43 42.25,42.75 89.66,72.49 145.65,28.47 166.15,-130.67 -67.36,-381.96 -228.6,-254.29 -229.3,181.51 96.81,455.33 -106.56,609.9 42.96,-199.18 -29.92,-167.04 -74.25,-319.63 -23.78,-81.78 31.36,-118.88 -5.37,-153.44 -1.22,-1.14 -85.43,-45.56 -130.18,-85.96 -11.37,67.32 -16.08,108.74 -35.91,181l70.7 42.85c52.62,38.17 108.84,105.14 109.39,171.41 -44.58,-43.59 -75,-91.2 -142.72,-97.24 -237.05,-21.28 -229.85,358.74 -44.42,293.68 -120.99,-62.02 -72.79,-233.36 75.38,-186.56 115.01,36.3 156.16,162.62 108.01,264.87 -101.91,216.36 -419.87,158.87 -396.61,-156.39l-30.68 39.5c-183.08,266.73 -410.72,90.62 -403.64,-73.62 5.21,-120.65 100.1,-223.27 221.17,-200.77 142.49,26.49 127.99,187.2 -15.26,201.82 93.18,97.39 231.36,-52.08 190.85,-170.37 -49.33,-144.06 -149.86,-130.92 -270.47,-91.46 64.14,-112.66 234.42,-85.14 260.92,-104.41 0.7,-1.1 47.72,-155.34 51.96,-175.75 -77.11,17.29 -99.13,24.64 -179.34,6.43 -9.9,225.79 -207.15,146.75 -265.57,378.66 -121.49,-207.51 343.76,-339.44 188.87,-596.28 -55.38,-91.83 -216.43,-113.85 -289.88,-26.89 -90.12,106.73 -6.54,269.91 113.29,201.21 -28.17,-27.98 -72.36,-12.43 -74.39,-76.13 -4.25,-134.64 187.33,-92.57 184.33,60.61 -3.18,162.19 -154.09,125.51 -211.93,371.34 -56.04,-65.69 -0.92,-175.38 26.87,-235.92 -71.62,-37.24 -136.57,-97.63 -159.34,-175.39 -35.27,-120.42 26.27,-155.67 74.3,-239.18 -164.35,-40.07 -151.37,-146.86 -237.39,-232.92 14.82,157.38 5.49,201.17 -73.43,324.64 219.78,57.35 227.38,215.93 146.21,396.08 65.48,25.84 149.36,120.32 153.62,186.04 -145.8,-151.56 -321.21,-87.82 -392.2,-221.3 -33.19,-62.42 -20.25,-170.87 62.6,-174.56 36.61,-1.65 70.1,21.37 78.25,57.49 11.86,52.4 -15.1,58.7 -46.37,84.75 142.97,17.44 150.99,-163.71 20.6,-223.35 -103.51,-47.34 -239.64,48.45 -244.12,163.14 -4.47,113.85 88.11,205.92 196.02,225.52 121.59,22.11 243.01,62.55 280.04,184.66 -107.45,-63.2 -83.28,-71.74 -224.13,-78.82 -161.52,-8.15 -109.75,-24.67 -209.33,-92.64 -72.32,56.46 -84.46,49.72 -146.65,85.69l141.79 123.43c43.74,-54.31 226.14,-97.12 271.52,-48.65 -59.42,17.28 -95.24,-1.15 -149.85,60.69 -38.03,43.08 -46.66,102.99 -33.51,158.94 29.06,123.56 212.09,168.24 255.51,42 -55.6,18.74 -97.87,29.04 -145.22,-14.61 -112.14,-103.39 148.69,-307.1 297.48,-118.83 63.3,80.15 61.74,229.54 -20.84,296.52 -89.11,72.29 -173.57,33.34 -258.8,-2.23l57.61 67.24 54.15 44.52 63.75 3.84 33.07 103.44zm836.53 -117.61l133.39 -19.31c-21.24,78.33 -8.6,69.5 -12.38,134.94 -32.99,7.21 -57.54,5.06 -85.7,12.39 -54.29,14.19 -25.26,30.25 -83.43,30.26 29.77,-39.34 37.3,-106.3 48.12,-158.28zm1313.84 975.9c28.69,-10.74 44.11,-16.53 83.75,-41.6 23.92,32.03 49.34,58.38 66.46,79.36 -25.02,10.39 -59.88,21.6 -96.11,38.5 -23.05,-40.86 -33.89,-53.23 -54.1,-76.26zm-1617.18 -1114.75l79.47 -67.12c11.2,34.45 31.39,68.41 38.58,93.93l-84.28 87.01 -33.77 -113.82zm-1.85 474.66c25.92,-110.53 60.97,-394.68 212.73,-380.23 29.49,92.32 -4.74,152.25 -60.97,224.65 -32.8,42.23 -108.83,132.62 -151.76,155.58zm95.07 85.08c72.47,-74.97 251.26,-294.96 374.38,-213.63 6.82,74.1 -88.64,137.58 -147,158.93 -56.4,20.64 -177.64,60.13 -227.38,54.7zm350.56 -46.58c37.88,-10.98 68.22,-50.82 94.56,-82.31l93.06 38.37 -60.23 83.97c-55.08,-32.71 -99.18,-11.91 -127.39,-40.03zm376.37 401.21c36.23,-11.47 71.85,-20.18 113.78,-34.6l45.01 74.52 -74.9 44.35c-30.12,-32.54 -57.41,-57.05 -83.89,-84.27zm-486.94 -304.2c98.2,-18.07 154.86,-26.87 229.89,51.29 -106.55,128.03 -296.88,50.61 -437.46,14.92 38.45,-25.52 157.22,-56.94 207.57,-66.21zm-450.81 -595.76c140.89,37.89 38.29,336.59 4.57,429.48 -51.1,-106.65 -114.6,-353.27 -4.57,-429.48zm518.41 794.53c66.63,4.49 118.59,-7.22 169.81,-42.99 15.34,20.66 58.32,83.64 69.77,103.22 -19.35,11.83 -87.02,46.98 -110.3,57.96 -28.19,-55.77 -67.03,-90.04 -127.86,-117.61l-1.42 -0.58zm724.23 -1405.12l16.73 -91.41 95.72 -19.74 -18.35 102.68c-57.26,-13.08 -42.12,-3.58 -94.1,8.47zm-285.92 213.73c38.98,-13.09 65.37,-14.59 112.56,-34.24l-26.49 108.79 -113.91 36.34c20.93,-60.28 18.4,-49.03 27.84,-110.89zm-264.13 324.31c6.96,-24.28 2.19,-33.98 6.88,-63.13l96.39 -6.05 -12.62 93.14 -113.15 25.84c10.7,-28.58 15.96,-26.99 22.5,-49.8zm-958 109.73c37.05,-49.91 31.16,-65.21 56.05,-119.21l113 76.83c-35.73,59.68 -34.6,105.19 -41.35,169.16 -58.18,-65.89 -51.53,-67.7 -127.7,-126.78zm1560.88 952.72c34.2,-7.72 77.59,-15.81 114.31,-32.97 22.8,36.48 49.07,57.27 73.26,80.13 -32.12,8.65 -65.09,14.57 -102.44,35.95 -24.23,-32.5 -58.64,-60.15 -85.13,-83.11zm-1082.19 -208.74c140.75,35.06 345.04,56.86 378.36,220.06 -103.04,33.37 -148.84,-1.18 -226.81,-63.55 -39.98,-31.97 -129.76,-115.82 -151.55,-156.51zm-540.34 -1510.94c-13.07,49.59 -18.64,69.2 -29.31,119.45 -18.63,-17.75 -73.59,-71.59 -84.46,-84.98 6.59,-23.2 13.91,-33.56 18.74,-50.12 7.75,-26.68 0.77,-23.78 10.64,-55.23 27.86,35.4 40.48,54.41 84.39,70.88zm-156.79 -314.79l-71.06 -58.21 28.96 -91.72 76.67 63.48 -34.57 86.45z"/>
  </g>
 </g>
</svg>
